mtllib SM_AC_Pipes_TJoint.mtl
g SM_AC_Pipes_TJoint
#Vertices 126
#Indices 360
#Section 0 Offset 0 NumIndices 360 MaterialIndex 0 MI_CeilingProps_Trim
v -0.500000 0.171471 -0.500000
v -0.500000 0.171471 -0.000000
v -0.552988 0.163078 -0.052987
v -0.552987 0.163078 -0.500000
v -0.600788 0.138723 -0.100788
v -0.600788 0.138723 -0.500000
v -0.638723 0.100788 -0.138723
v -0.638723 0.100788 -0.500000
v -0.663078 0.052987 -0.163078
v -0.663078 0.052987 -0.500000
v -0.671471 0.000000 -0.171471
v -0.671471 0.000000 -0.500000
v -0.663078 -0.052987 -0.500000
v -0.663078 -0.052987 -0.163078
v -0.638723 -0.100788 -0.500000
v -0.638723 -0.100788 -0.138723
v -0.600788 -0.138723 -0.500000
v -0.600788 -0.138723 -0.100788
v -0.552987 -0.163078 -0.500000
v -0.552987 -0.163078 -0.052987
v -0.500000 -0.171471 -0.500000
v -0.500000 -0.171471 -0.000000
v -0.447013 -0.163078 -0.052987
v -0.447013 -0.163078 -0.500000
v -0.399212 -0.138723 -0.100788
v -0.399212 -0.138723 -0.500000
v -0.361277 -0.100788 -0.138723
v -0.361277 -0.100788 -0.500000
v -0.336922 -0.052987 -0.163078
v -0.336922 -0.052987 -0.500000
v -0.328529 0.000000 -0.171471
v -0.328529 0.000000 -0.500000
v -0.336922 0.052988 -0.500000
v -0.336922 0.052987 -0.163078
v -0.361277 0.100788 -0.500000
v -0.361277 0.100788 -0.138723
v -0.399212 0.138723 -0.500000
v -0.399212 0.138723 -0.100788
v -0.447013 0.163078 -0.500000
v -0.447013 0.163078 -0.052987
v -0.500000 0.171471 -0.500000
v -0.500000 0.171471 -0.000000
v 0.000000 0.171471 0.000000
v -0.500000 0.171471 -0.000000
v -0.447013 0.163078 -0.052987
v 0.000000 0.163078 -0.052987
v -0.399212 0.138723 -0.100788
v 0.000000 0.138723 -0.100788
v -0.361277 0.100788 -0.138723
v 0.000000 0.100788 -0.138723
v -0.336922 0.052987 -0.163078
v 0.000000 0.052987 -0.163078
v -0.328529 0.000000 -0.171471
v 0.000000 0.000000 -0.171471
v 0.000000 -0.052987 -0.163078
v -0.336922 -0.052987 -0.163078
v 0.000000 -0.100788 -0.138723
v -0.361277 -0.100788 -0.138723
v 0.000000 -0.138723 -0.100788
v -0.399212 -0.138723 -0.100788
v 0.000000 -0.163078 -0.052987
v -0.447013 -0.163078 -0.052987
v 0.000000 -0.171471 -0.000000
v -0.500000 -0.171471 -0.000000
v 0.000000 -0.163078 0.052987
v -0.500000 -0.163078 0.052987
v 0.000000 -0.138723 0.100788
v -0.500000 -0.138723 0.100788
v 0.000000 -0.100788 0.138723
v -0.500000 -0.100788 0.138723
v 0.000000 -0.052987 0.163078
v -0.500000 -0.052987 0.163078
v -0.500000 0.000000 0.171471
v 0.000000 0.000000 0.171471
v 0.000000 0.052987 0.163078
v -0.500000 0.052987 0.163078
v -0.500000 0.100788 0.138723
v 0.000000 0.100788 0.138723
v 0.000000 0.138723 0.100788
v -0.500000 0.138723 0.100788
v -0.500000 0.163078 0.052987
v 0.000000 0.163078 0.052987
v -0.500000 0.171471 -0.000000
v 0.000000 0.171471 0.000000
v -1.000000 0.171471 0.000000
v -0.552988 0.163078 -0.052987
v -0.500000 0.171471 -0.000000
v -1.000000 0.163078 -0.052987
v -0.600788 0.138723 -0.100788
v -1.000000 0.138723 -0.100788
v -0.638723 0.100788 -0.138723
v -1.000000 0.100788 -0.138723
v -0.663078 0.052987 -0.163078
v -1.000000 0.052988 -0.163078
v -0.671471 0.000000 -0.171471
v -1.000000 0.000000 -0.171471
v -1.000000 -0.052987 -0.163078
v -0.663078 -0.052987 -0.163078
v -1.000000 -0.100788 -0.138723
v -0.638723 -0.100788 -0.138723
v -1.000000 -0.138723 -0.100788
v -0.600788 -0.138723 -0.100788
v -1.000000 -0.163078 -0.052987
v -0.552987 -0.163078 -0.052987
v -1.000000 -0.171471 -0.000000
v -0.500000 -0.171471 -0.000000
v -0.500000 -0.163078 0.052987
v -1.000000 -0.163078 0.052987
v -1.000000 -0.138723 0.100788
v -0.500000 -0.138723 0.100788
v -0.500000 -0.100788 0.138723
v -1.000000 -0.100788 0.138723
v -0.500000 -0.052987 0.163078
v -1.000000 -0.052987 0.163078
v -0.500000 0.000000 0.171471
v -1.000000 0.000000 0.171471
v -0.500000 0.052987 0.163078
v -1.000000 0.052987 0.163078
v -1.000000 0.100788 0.138723
v -0.500000 0.100788 0.138723
v -0.500000 0.138723 0.100788
v -1.000000 0.138723 0.100788
v -1.000000 0.163078 0.052987
v -0.500000 0.163078 0.052987
v -1.000000 0.171471 0.000000
v -0.500000 0.171471 -0.000000
vt 0.533691 0.364258
vt 0.367676 0.364258
vt 0.384766 0.347168
vt 0.533691 0.347168
vt 0.401855 0.328125
vt 0.533691 0.328125
vt 0.413086 0.310547
vt 0.533691 0.310547
vt 0.421875 0.292969
vt 0.533691 0.292969
vt 0.425781 0.275391
vt 0.533691 0.275391
vt 0.533691 0.257324
vt 0.421875 0.257324
vt 0.533691 0.239258
vt 0.413086 0.239258
vt 0.533691 0.221680
vt 0.401855 0.221680
vt 0.533691 0.204102
vt 0.384766 0.204102
vt 0.533691 0.186035
vt 0.367676 0.186035
vt 0.384766 0.167969
vt 0.533691 0.167969
vt 0.401855 0.150391
vt 0.533691 0.150391
vt 0.413086 0.132812
vt 0.533691 0.132812
vt 0.421875 0.114746
vt 0.533691 0.114746
vt 0.425781 0.096680
vt 0.533691 0.096680
vt 0.533691 0.079102
vt 0.421875 0.079102
vt 0.533691 0.061523
vt 0.413086 0.061523
vt 0.533691 0.043945
vt 0.401855 0.043945
vt 0.533691 0.024902
vt 0.384766 0.024902
vt 0.533691 0.007812
vt 0.367676 0.007812
vt 0.354980 0.039062
vt 0.524414 0.041992
vt 0.503906 0.056641
vt 0.354980 0.056641
vt 0.488281 0.074219
vt 0.354980 0.074219
vt 0.475586 0.093262
vt 0.354980 0.093262
vt 0.467285 0.110352
vt 0.354980 0.110352
vt 0.464355 0.128418
vt 0.354980 0.128418
vt 0.354980 0.145508
vt 0.467285 0.145508
vt 0.354980 0.164062
vt 0.475586 0.164062
vt 0.356934 0.184082
vt 0.488281 0.182129
vt 0.354980 0.199707
vt 0.503906 0.199707
vt 0.354980 0.217285
vt 0.524414 0.220215
vt 0.354980 0.234863
vt 0.524414 0.237793
vt 0.354980 0.252441
vt 0.524414 0.255371
vt 0.354980 0.270508
vt 0.524414 0.273438
vt 0.354980 0.289062
vt 0.523926 0.291504
vt 0.524414 0.309082
vt 0.354980 0.306152
vt 0.354980 0.324219
vt 0.523926 0.326660
vt 0.524414 0.344238
vt 0.354980 0.341309
vt 0.356934 0.362305
vt 0.523926 0.362793
vt 0.521484 0.377930
vt 0.354980 0.377930
vt 0.521484 0.395508
vt 0.354980 0.395508
vt 0.376465 0.011719
vt 0.226562 0.028320
vt 0.208984 0.010742
vt 0.375488 0.028320
vt 0.242188 0.045898
vt 0.375488 0.045898
vt 0.254883 0.064941
vt 0.375488 0.064941
vt 0.263184 0.082031
vt 0.375488 0.082031
vt 0.266113 0.100098
vt 0.375488 0.100098
vt 0.375488 0.117188
vt 0.263184 0.117188
vt 0.375488 0.135742
vt 0.254883 0.135742
vt 0.376465 0.154785
vt 0.242188 0.153809
vt 0.375488 0.171387
vt 0.226562 0.171387
vt 0.375977 0.189453
vt 0.208984 0.188965
vt 0.208984 0.206543
vt 0.375488 0.206543
vt 0.375488 0.224121
vt 0.208984 0.224121
vt 0.208984 0.242188
vt 0.375488 0.242188
vt 0.208984 0.260742
vt 0.375488 0.260742
vt 0.208984 0.277832
vt 0.375488 0.277832
vt 0.208984 0.295898
vt 0.375488 0.295898
vt 0.375488 0.312988
vt 0.208984 0.312988
vt 0.208984 0.332031
vt 0.375977 0.332520
vt 0.375488 0.349609
vt 0.208984 0.349609
vt 0.375488 0.367188
vt 0.208984 0.367188
vt1 0.000000 0.000000
vt1 0.000000 0.000000
vt1 0.000000 0.000000
vt1 0.000000 0.000000
vt1 0.000000 0.000000
vt1 0.000000 0.000000
vt1 0.000000 0.000000
vt1 0.000000 0.000000
vt1 0.000000 0.000000
vt1 0.000000 0.000000
vt1 0.000000 0.000000
vt1 0.000000 0.000000
vt1 0.000000 0.000000
vt1 0.000000 0.000000
vt1 0.000000 0.000000
vt1 0.000000 0.000000
vt1 0.000000 0.000000
vt1 0.000000 0.000000
vt1 0.000000 0.000000
vt1 0.000000 0.000000
vt1 0.000000 0.000000
vt1 0.000000 0.000000
vt1 0.000000 0.000000
vt1 0.000000 0.000000
vt1 0.000000 0.000000
vt1 0.000000 0.000000
vt1 0.000000 0.000000
vt1 0.000000 0.000000
vt1 0.000000 0.000000
vt1 0.000000 0.000000
vt1 0.000000 0.000000
vt1 0.000000 0.000000
vt1 0.000000 0.000000
vt1 0.000000 0.000000
vt1 0.000000 0.000000
vt1 0.000000 0.000000
vt1 0.000000 0.000000
vt1 0.000000 0.000000
vt1 0.000000 0.000000
vt1 0.000000 0.000000
vt1 0.000000 0.000000
vt1 0.000000 0.000000
vt1 0.000000 0.000000
vt1 0.000000 0.000000
vt1 0.000000 0.000000
vt1 0.000000 0.000000
vt1 0.000000 0.000000
vt1 0.000000 0.000000
vt1 0.000000 0.000000
vt1 0.000000 0.000000
vt1 0.000000 0.000000
vt1 0.000000 0.000000
vt1 0.000000 0.000000
vt1 0.000000 0.000000
vt1 0.000000 0.000000
vt1 0.000000 0.000000
vt1 0.000000 0.000000
vt1 0.000000 0.000000
vt1 0.000000 0.000000
vt1 0.000000 0.000000
vt1 0.000000 0.000000
vt1 0.000000 0.000000
vt1 0.000000 0.000000
vt1 0.000000 0.000000
vt1 0.000000 0.000000
vt1 0.000000 0.000000
vt1 0.000000 0.000000
vt1 0.000000 0.000000
vt1 0.000000 0.000000
vt1 0.000000 0.000000
vt1 0.000000 0.000000
vt1 0.000000 0.000000
vt1 0.000000 0.000000
vt1 0.000000 0.000000
vt1 0.000000 0.000000
vt1 0.000000 0.000000
vt1 0.000000 0.000000
vt1 0.000000 0.000000
vt1 0.000000 0.000000
vt1 0.000000 0.000000
vt1 0.000000 0.000000
vt1 0.000000 0.000000
vt1 0.000000 0.000000
vt1 0.000000 0.000000
vt1 0.000000 0.000000
vt1 0.000000 0.000000
vt1 0.000000 0.000000
vt1 0.000000 0.000000
vt1 0.000000 0.000000
vt1 0.000000 0.000000
vt1 0.000000 0.000000
vt1 0.000000 0.000000
vt1 0.000000 0.000000
vt1 0.000000 0.000000
vt1 0.000000 0.000000
vt1 0.000000 0.000000
vt1 0.000000 0.000000
vt1 0.000000 0.000000
vt1 0.000000 0.000000
vt1 0.000000 0.000000
vt1 0.000000 0.000000
vt1 0.000000 0.000000
vt1 0.000000 0.000000
vt1 0.000000 0.000000
vt1 0.000000 0.000000
vt1 0.000000 0.000000
vt1 0.000000 0.000000
vt1 0.000000 0.000000
vt1 0.000000 0.000000
vt1 0.000000 0.000000
vt1 0.000000 0.000000
vt1 0.000000 0.000000
vt1 0.000000 0.000000
vt1 0.000000 0.000000
vt1 0.000000 0.000000
vt1 0.000000 0.000000
vt1 0.000000 0.000000
vt1 0.000000 0.000000
vt1 0.000000 0.000000
vt1 0.000000 0.000000
vt1 0.000000 0.000000
vt1 0.000000 0.000000
vt1 0.000000 0.000000
vt1 0.000000 0.000000
vt1 0.000000 0.000000
vt1 0.000000 0.000000
vn 0.000000 1.000000 -0.000000
vn 0.000000 1.000000 -0.000000
vn -0.236220 0.968504 -0.000000
vn -0.307087 0.952756 -0.000000
vn -0.535433 0.842520 -0.000000
vn -0.590551 0.811023 -0.000000
vn -0.779528 0.629921 -0.000000
vn -0.811024 0.590551 -0.000000
vn -0.944882 0.330709 -0.000000
vn -0.952756 0.307087 -0.000000
vn -1.000000 0.000000 0.000000
vn -1.000000 0.000000 0.000000
vn -0.952756 -0.307087 0.000000
vn -0.944882 -0.330709 0.000000
vn -0.811024 -0.590551 0.000000
vn -0.779528 -0.629921 0.000000
vn -0.590551 -0.811023 0.000000
vn -0.535433 -0.842520 0.000000
vn -0.307087 -0.952756 0.000000
vn -0.236220 -0.968504 0.000000
vn 0.000000 -1.000000 0.000000
vn 0.000000 -1.000000 0.000000
vn 0.236220 -0.968504 0.000000
vn 0.307087 -0.952756 0.000000
vn 0.535433 -0.842520 0.000000
vn 0.590551 -0.811023 0.000000
vn 0.779528 -0.629921 0.000000
vn 0.811024 -0.590551 0.000000
vn 0.944882 -0.330709 0.000000
vn 0.952756 -0.307087 0.000000
vn 1.000000 0.000000 0.000000
vn 1.000000 0.000000 0.000000
vn 0.952756 0.307087 -0.000000
vn 0.944882 0.330709 -0.000000
vn 0.811024 0.590551 -0.000000
vn 0.779528 0.629921 -0.000000
vn 0.590551 0.811023 -0.000000
vn 0.535433 0.842520 -0.000000
vn 0.307087 0.952756 -0.000000
vn 0.236220 0.968504 -0.000000
vn 0.000000 1.000000 -0.000000
vn 0.000000 1.000000 -0.000000
vn 0.000000 1.000000 -0.000000
vn 0.000000 1.000000 0.055118
vn 0.000000 0.968504 -0.236221
vn 0.000000 0.952756 -0.307087
vn 0.000000 0.842520 -0.535433
vn 0.000000 0.811023 -0.590551
vn 0.000000 0.629921 -0.779527
vn 0.000000 0.590551 -0.811024
vn 0.000000 0.330709 -0.944882
vn 0.000000 0.307086 -0.952756
vn 0.000000 -0.000000 -1.000000
vn 0.000000 -0.000000 -1.000000
vn 0.000000 -0.307087 -0.952756
vn 0.000000 -0.330709 -0.944882
vn 0.000000 -0.590551 -0.811023
vn 0.000000 -0.629921 -0.779527
vn 0.000000 -0.811024 -0.590551
vn 0.000000 -0.842520 -0.535433
vn 0.000000 -0.952756 -0.307086
vn 0.000000 -0.968504 -0.236220
vn 0.000000 -1.000000 0.000000
vn 0.000000 -1.000000 0.055118
vn 0.000000 -0.952756 0.307087
vn 0.000000 -0.952756 0.307087
vn 0.000000 -0.811023 0.590551
vn 0.000000 -0.811023 0.590551
vn 0.000000 -0.590551 0.811024
vn 0.000000 -0.590551 0.811024
vn 0.000000 -0.307086 0.952756
vn 0.000000 -0.307086 0.952756
vn 0.000000 0.000000 1.000000
vn 0.000000 0.000000 1.000000
vn 0.000000 0.307087 0.952756
vn 0.000000 0.307087 0.952756
vn 0.000000 0.590551 0.811023
vn 0.000000 0.590551 0.811023
vn 0.000000 0.811024 0.590551
vn 0.000000 0.811024 0.590551
vn 0.000000 0.952756 0.307086
vn 0.000000 0.952756 0.307086
vn 0.000000 1.000000 0.055118
vn 0.000000 1.000000 -0.000000
vn 0.000000 1.000000 -0.000000
vn 0.000000 0.968504 -0.236221
vn 0.000000 1.000000 0.055118
vn 0.000000 0.952756 -0.307087
vn 0.000000 0.842520 -0.535433
vn 0.000000 0.811023 -0.590551
vn 0.000000 0.629921 -0.779527
vn 0.000000 0.590551 -0.811024
vn 0.000000 0.330709 -0.944882
vn 0.000000 0.307086 -0.952756
vn 0.000000 -0.000000 -1.000000
vn 0.000000 -0.000000 -1.000000
vn 0.000000 -0.307087 -0.952756
vn 0.000000 -0.330709 -0.944882
vn 0.000000 -0.590551 -0.811023
vn 0.000000 -0.629921 -0.779527
vn 0.000000 -0.811024 -0.590551
vn 0.000000 -0.842520 -0.535433
vn 0.000000 -0.952756 -0.307086
vn 0.000000 -0.968504 -0.236220
vn 0.000000 -1.000000 0.000000
vn 0.000000 -1.000000 0.055118
vn 0.000000 -0.952756 0.307087
vn 0.000000 -0.952756 0.307087
vn 0.000000 -0.811023 0.590551
vn 0.000000 -0.811023 0.590551
vn 0.000000 -0.590551 0.811024
vn 0.000000 -0.590551 0.811024
vn 0.000000 -0.307086 0.952756
vn 0.000000 -0.307086 0.952756
vn 0.000000 0.000000 1.000000
vn 0.000000 0.000000 1.000000
vn 0.000000 0.307087 0.952756
vn 0.000000 0.307087 0.952756
vn 0.000000 0.590551 0.811023
vn 0.000000 0.590551 0.811023
vn 0.000000 0.811024 0.590551
vn 0.000000 0.811024 0.590551
vn 0.000000 0.952756 0.307086
vn 0.000000 0.952756 0.307086
vn 0.000000 1.000000 -0.000000
vn 0.000000 1.000000 0.055118
tan -1.000000 0.000000 0.000000 1.000000
tan -1.000000 0.000000 0.000000 1.000000
tan -0.968504 -0.236220 0.000000 1.000000
tan -0.952756 -0.307087 0.000000 1.000000
tan -0.842520 -0.535433 0.000000 1.000000
tan -0.811024 -0.590551 0.000000 1.000000
tan -0.629921 -0.779527 0.000000 1.000000
tan -0.590551 -0.811023 0.000000 1.000000
tan -0.330709 -0.944882 0.000000 1.000000
tan -0.307087 -0.952756 0.000000 1.000000
tan 0.000000 -1.000000 0.000000 1.000000
tan 0.000000 -1.000000 0.000000 1.000000
tan 0.307087 -0.952756 0.000000 1.000000
tan 0.330709 -0.944882 0.000000 1.000000
tan 0.590551 -0.811023 0.000000 1.000000
tan 0.629921 -0.779527 0.000000 1.000000
tan 0.811024 -0.590551 0.000000 1.000000
tan 0.842520 -0.535433 0.000000 1.000000
tan 0.952756 -0.307087 0.000000 1.000000
tan 0.968504 -0.236220 0.000000 1.000000
tan 1.000000 0.000000 0.000000 1.000000
tan 1.000000 0.000000 0.000000 1.000000
tan 0.968504 0.236220 -0.000000 1.000000
tan 0.952756 0.307087 -0.000000 1.000000
tan 0.842520 0.535433 -0.000000 1.000000
tan 0.811024 0.590551 -0.000000 1.000000
tan 0.629921 0.779527 -0.000000 1.000000
tan 0.590551 0.811023 -0.000000 1.000000
tan 0.330709 0.944882 -0.000000 1.000000
tan 0.307087 0.952756 -0.000000 1.000000
tan 0.000000 1.000000 -0.000000 1.000000
tan 0.000000 1.000000 -0.000000 1.000000
tan -0.307087 0.952756 -0.000000 1.000000
tan -0.330709 0.944882 -0.000000 1.000000
tan -0.590551 0.811023 -0.000000 1.000000
tan -0.629921 0.779527 -0.000000 1.000000
tan -0.811024 0.590551 -0.000000 1.000000
tan -0.842520 0.535433 -0.000000 1.000000
tan -0.952756 0.307087 -0.000000 1.000000
tan -0.968504 0.236220 -0.000000 1.000000
tan -1.000000 0.000000 0.000000 1.000000
tan -1.000000 0.000000 0.000000 1.000000
tan 0.000000 0.000000 1.000000 1.000000
tan 0.023622 -0.055118 1.000000 1.000000
tan 0.015252 0.236221 0.968504 1.000000
tan 0.000000 0.307087 0.952756 1.000000
tan 0.000000 0.535433 0.842520 1.000000
tan 0.000000 0.590551 0.811023 1.000000
tan 0.000000 0.779527 0.629921 1.000000
tan 0.000000 0.811024 0.590551 1.000000
tan 0.000000 0.944882 0.330709 1.000000
tan 0.000000 0.952756 0.307086 1.000000
tan 0.000000 1.000000 -0.000000 1.000000
tan 0.000000 1.000000 -0.000000 1.000000
tan 0.000000 0.952756 -0.307087 1.000000
tan 0.000000 0.944882 -0.330709 1.000000
tan 0.000000 0.811023 -0.590551 1.000000
tan -0.011098 0.779527 -0.629921 1.000000
tan -0.011036 0.590551 -0.811024 1.000000
tan -0.006634 0.535433 -0.842520 1.000000
tan -0.007502 0.307086 -0.952756 1.000000
tan 0.007626 0.236220 -0.968504 1.000000
tan 0.007874 -0.000000 -1.000000 1.000000
tan 0.015748 -0.055118 -1.000000 1.000000
tan 0.017422 -0.307087 -0.952756 1.000000
tan 0.017422 -0.307087 -0.952756 1.000000
tan 0.017422 -0.590551 -0.811023 1.000000
tan 0.017422 -0.590551 -0.811023 1.000000
tan 0.017422 -0.811024 -0.590551 1.000000
tan 0.017422 -0.811024 -0.590551 1.000000
tan 0.017422 -0.952756 -0.307086 1.000000
tan 0.017422 -0.952756 -0.307086 1.000000
tan 0.015748 -1.000000 0.000000 1.000000
tan 0.015748 -1.000000 0.000000 1.000000
tan 0.017422 -0.952756 0.307087 1.000000
tan 0.017422 -0.952756 0.307087 1.000000
tan 0.011036 -0.811023 0.590551 1.000000
tan 0.017422 -0.811023 0.590551 1.000000
tan 0.011036 -0.590551 0.811024 1.000000
tan 0.000000 -0.590551 0.811024 1.000000
tan 0.000000 -0.307086 0.952756 1.000000
tan 0.000000 -0.307086 0.952756 1.000000
tan 0.000000 -0.055118 1.000000 1.000000
tan 0.000000 0.000000 1.000000 1.000000
tan 0.000000 0.000000 1.000000 1.000000
tan 0.007626 0.236221 0.968504 1.000000
tan 0.007874 -0.055118 1.000000 1.000000
tan 0.000000 0.307087 0.952756 1.000000
tan 0.000000 0.535433 0.842520 1.000000
tan 0.000000 0.590551 0.811023 1.000000
tan 0.000000 0.779527 0.629921 1.000000
tan 0.000000 0.811024 0.590551 1.000000
tan 0.000000 0.944882 0.330709 1.000000
tan 0.000000 0.952756 0.307086 1.000000
tan 0.000000 1.000000 -0.000000 1.000000
tan 0.000000 1.000000 -0.000000 1.000000
tan 0.000000 0.952756 -0.307087 1.000000
tan 0.000000 0.944882 -0.330709 1.000000
tan 0.000000 0.811023 -0.590551 1.000000
tan 0.000000 0.779527 -0.629921 1.000000
tan 0.000000 0.590551 -0.811024 1.000000
tan 0.000000 0.535433 -0.842520 1.000000
tan 0.000000 0.307086 -0.952756 1.000000
tan 0.000000 0.236220 -0.968504 1.000000
tan 0.000000 -0.000000 -1.000000 1.000000
tan 0.000000 -0.055118 -1.000000 1.000000
tan 0.000000 -0.307087 -0.952756 1.000000
tan 0.000000 -0.307087 -0.952756 1.000000
tan 0.000000 -0.590551 -0.811023 1.000000
tan 0.000000 -0.590551 -0.811023 1.000000
tan 0.000000 -0.811024 -0.590551 1.000000
tan 0.000000 -0.811024 -0.590551 1.000000
tan 0.000000 -0.952756 -0.307086 1.000000
tan 0.000000 -0.952756 -0.307086 1.000000
tan 0.000000 -1.000000 0.000000 1.000000
tan 0.000000 -1.000000 0.000000 1.000000
tan 0.000000 -0.952756 0.307087 1.000000
tan 0.000000 -0.952756 0.307087 1.000000
tan 0.000000 -0.811023 0.590551 1.000000
tan 0.000000 -0.811023 0.590551 1.000000
tan 0.000000 -0.590551 0.811024 1.000000
tan 0.000000 -0.590551 0.811024 1.000000
tan 0.000000 -0.307086 0.952756 1.000000
tan 0.000000 -0.307086 0.952756 1.000000
tan 0.000000 0.000000 1.000000 1.000000
tan 0.000000 -0.055118 1.000000 1.000000
f 3/3/3 2/2/2 1/1/1
f 4/4/4 3/3/3 1/1/1
f 5/5/5 3/3/3 4/4/4
f 6/6/6 5/5/5 4/4/4
f 5/5/5 6/6/6 7/7/7
f 8/8/8 7/7/7 6/6/6
f 7/7/7 8/8/8 9/9/9
f 10/10/10 9/9/9 8/8/8
f 9/9/9 10/10/10 11/11/11
f 12/12/12 11/11/11 10/10/10
f 12/12/12 13/13/13 11/11/11
f 14/14/14 11/11/11 13/13/13
f 13/13/13 15/15/15 14/14/14
f 16/16/16 14/14/14 15/15/15
f 15/15/15 17/17/17 16/16/16
f 18/18/18 16/16/16 17/17/17
f 17/17/17 19/19/19 18/18/18
f 20/20/20 18/18/18 19/19/19
f 19/19/19 21/21/21 20/20/20
f 22/22/22 20/20/20 21/21/21
f 23/23/23 22/22/22 21/21/21
f 21/21/21 24/24/24 23/23/23
f 25/25/25 23/23/23 24/24/24
f 24/24/24 26/26/26 25/25/25
f 27/27/27 25/25/25 26/26/26
f 26/26/26 28/28/28 27/27/27
f 29/29/29 27/27/27 28/28/28
f 28/28/28 30/30/30 29/29/29
f 29/29/29 30/30/30 31/31/31
f 30/30/30 32/32/32 31/31/31
f 32/32/32 33/33/33 31/31/31
f 34/34/34 31/31/31 33/33/33
f 33/33/33 35/35/35 34/34/34
f 36/36/36 34/34/34 35/35/35
f 35/35/35 37/37/37 36/36/36
f 38/38/38 36/36/36 37/37/37
f 37/37/37 39/39/39 38/38/38
f 40/40/40 38/38/38 39/39/39
f 39/39/39 41/41/41 40/40/40
f 42/42/42 40/40/40 41/41/41
f 45/45/45 44/44/44 43/43/43
f 46/46/46 45/45/45 43/43/43
f 45/45/45 46/46/46 47/47/47
f 48/48/48 47/47/47 46/46/46
f 47/47/47 48/48/48 49/49/49
f 50/50/50 49/49/49 48/48/48
f 49/49/49 50/50/50 51/51/51
f 52/52/52 51/51/51 50/50/50
f 51/51/51 52/52/52 53/53/53
f 54/54/54 53/53/53 52/52/52
f 55/55/55 53/53/53 54/54/54
f 53/53/53 55/55/55 56/56/56
f 57/57/57 56/56/56 55/55/55
f 56/56/56 57/57/57 58/58/58
f 59/59/59 58/58/58 57/57/57
f 58/58/58 59/59/59 60/60/60
f 61/61/61 60/60/60 59/59/59
f 60/60/60 61/61/61 62/62/62
f 63/63/63 62/62/62 61/61/61
f 62/62/62 63/63/63 64/64/64
f 63/63/63 65/65/65 64/64/64
f 66/66/66 64/64/64 65/65/65
f 65/65/65 67/67/67 66/66/66
f 68/68/68 66/66/66 67/67/67
f 67/67/67 69/69/69 68/68/68
f 70/70/70 68/68/68 69/69/69
f 69/69/69 71/71/71 70/70/70
f 72/72/72 70/70/70 71/71/71
f 72/72/72 71/71/71 73/73/73
f 74/74/74 73/73/73 71/71/71
f 74/74/74 75/75/75 73/73/73
f 76/76/76 73/73/73 75/75/75
f 76/76/76 75/75/75 77/77/77
f 75/75/75 78/78/78 77/77/77
f 78/78/78 79/79/79 77/77/77
f 80/80/80 77/77/77 79/79/79
f 81/81/81 80/80/80 79/79/79
f 82/82/82 81/81/81 79/79/79
f 83/83/83 81/81/81 82/82/82
f 84/84/84 83/83/83 82/82/82
f 87/87/87 86/86/86 85/85/85
f 88/88/88 85/85/85 86/86/86
f 86/86/86 89/89/89 88/88/88
f 90/90/90 88/88/88 89/89/89
f 89/89/89 91/91/91 90/90/90
f 92/92/92 90/90/90 91/91/91
f 91/91/91 93/93/93 92/92/92
f 94/94/94 92/92/92 93/93/93
f 93/93/93 95/95/95 94/94/94
f 96/96/96 94/94/94 95/95/95
f 97/97/97 96/96/96 95/95/95
f 98/98/98 97/97/97 95/95/95
f 99/99/99 97/97/97 98/98/98
f 98/98/98 100/100/100 99/99/99
f 101/101/101 99/99/99 100/100/100
f 100/100/100 102/102/102 101/101/101
f 103/103/103 101/101/101 102/102/102
f 102/102/102 104/104/104 103/103/103
f 105/105/105 103/103/103 104/104/104
f 104/104/104 106/106/106 105/105/105
f 106/106/106 107/107/107 105/105/105
f 108/108/108 105/105/105 107/107/107
f 109/109/109 108/108/108 107/107/107
f 110/110/110 109/109/109 107/107/107
f 110/110/110 111/111/111 109/109/109
f 112/112/112 109/109/109 111/111/111
f 111/111/111 113/113/113 112/112/112
f 114/114/114 112/112/112 113/113/113
f 113/113/113 115/115/115 114/114/114
f 116/116/116 114/114/114 115/115/115
f 115/115/115 117/117/117 116/116/116
f 118/118/118 116/116/116 117/117/117
f 118/118/118 117/117/117 119/119/119
f 120/120/120 119/119/119 117/117/117
f 120/120/120 121/121/121 119/119/119
f 122/122/122 119/119/119 121/121/121
f 123/123/123 122/122/122 121/121/121
f 124/124/124 123/123/123 121/121/121
f 125/125/125 123/123/123 124/124/124
f 126/126/126 125/125/125 124/124/124
