mtllib SM_Decals.mtl
g SM_Decals
#Vertices 8
#Indices 12
#Section 0 Offset 0 NumIndices 12 MaterialIndex 0 MI_EdgeNormalDecal
v -0.000360 2.482698 0.000000
v 0.038674 0.000000 -0.000000
v 0.038674 2.482698 -0.000000
v -0.000360 0.000000 -0.000000
v -0.000360 2.482698 0.038315
v -0.000360 0.000000 0.038315
v -0.000360 2.482698 0.000000
v -0.000360 0.000000 -0.000000
vt 0.504395 0.000000
vt -0.000708 1.003929
vt 0.000000 0.000000
vt 0.504395 1.003929
vt 0.999512 0.000000
vt 1.000000 1.003929
vt 0.504395 0.000000
vt 0.504395 1.003929
vt1 0.502930 0.008301
vt1 0.008064 0.991936
vt1 0.008751 0.008301
vt1 0.502930 0.991936
vt1 0.988770 0.008301
vt1 0.989258 0.991936
vt1 0.502930 0.008301
vt1 0.502930 0.991936
vn 0.000000 -0.000000 -1.000000
vn 0.000000 -0.000000 -1.000000
vn 0.000000 -0.000000 -1.000000
vn 0.000000 -0.000000 -1.000000
vn -1.000000 0.000000 0.000000
vn -1.000000 0.000000 0.000000
vn -1.000000 0.000000 0.000000
vn -1.000000 0.000000 0.000000
tan 0.000000 1.000000 -0.000000 1.000000
tan 0.000000 1.000000 -0.000000 1.000000
tan 0.000000 1.000000 -0.000000 1.000000
tan 0.000000 1.000000 -0.000000 1.000000
tan 0.000000 1.000000 -0.000000 1.000000
tan 0.000000 1.000000 -0.000000 1.000000
tan 0.000000 1.000000 -0.000000 1.000000
tan 0.000000 1.000000 -0.000000 1.000000
f 3/3/3 2/2/2 1/1/1
f 4/4/4 1/1/1 2/2/2
f 7/7/7 6/6/6 5/5/5
f 8/8/8 6/6/6 7/7/7
