mtllib SM_Fork_LOD2.mtl
g SM_Fork_LOD2
#Vertices 144
#Indices 366
#Section 0 Offset 0 NumIndices 366 MaterialIndex 0 MM_KProps
v -0.008491 0.005655 0.117759
v -0.007242 0.005655 0.117759
v -0.007242 0.004122 0.117890
v -0.008491 0.004122 0.117890
v -0.003112 0.005655 0.117759
v -0.001786 0.005655 0.117759
v -0.001786 0.004122 0.117890
v -0.003112 0.004122 0.117890
v 0.003050 0.005655 0.117759
v 0.004375 0.005655 0.117759
v 0.004375 0.004122 0.117890
v 0.003050 0.004122 0.117890
v -0.005429 -0.000836 -0.111112
v 0.009260 -0.000772 -0.107895
v 0.005784 -0.000780 -0.111016
v -0.009189 -0.000764 -0.107982
v 0.010441 -0.000843 -0.098078
v -0.010450 -0.000877 -0.098139
v 0.007425 -0.000000 -0.064646
v -0.007425 -0.000000 -0.064646
v 0.003846 -0.000000 -0.004157
v -0.003840 0.000000 -0.003981
v 0.003808 0.000042 0.031677
v -0.003803 0.000308 0.032545
v 0.011151 -0.001580 0.043351
v -0.011895 -0.001719 0.043441
v -0.014438 -0.002385 0.047343
v 0.015108 -0.002274 0.048468
v -0.008491 0.004122 0.117890
v -0.008619 -0.000706 0.066016
v -0.007242 0.004122 0.117890
v -0.006294 -0.000794 0.065263
v -0.001092 -0.000742 0.065706
v -0.005056 -0.000712 0.066020
v -0.003112 0.004122 0.117890
v -0.001786 0.004122 0.117890
v 0.001169 -0.000794 0.065263
v 0.008083 -0.000693 0.065801
v 0.006333 -0.000659 0.066179
v 0.009826 -0.000678 0.066149
v 0.002415 -0.000718 0.065978
v 0.010114 0.004122 0.117890
v 0.008548 0.004122 0.117890
v 0.004375 0.004122 0.117890
v 0.003050 0.004122 0.117890
v 0.010620 0.003292 -0.104408
v -0.007023 0.003281 -0.110517
v 0.006512 0.003324 -0.110975
v -0.010580 0.003376 -0.105276
v 0.007425 0.002375 -0.064646
v -0.007425 0.002375 -0.064646
v 0.003834 0.002375 -0.003826
v -0.003831 0.002375 -0.003739
v 0.003834 0.002449 0.032191
v -0.003915 0.002670 0.032478
v 0.011789 0.000645 0.043328
v -0.011840 0.000651 0.043334
v -0.014420 -0.000006 0.046946
v 0.015082 0.000124 0.048391
v 0.000074 0.001572 0.065061
v -0.005281 0.001480 0.065685
v -0.001209 0.001638 0.066004
v -0.003112 0.005655 0.117759
v -0.001786 0.005655 0.117759
v -0.008571 0.001553 0.065644
v -0.008491 0.005655 0.117759
v -0.007242 0.005655 0.117759
v 0.002361 0.001558 0.065367
v 0.003050 0.005655 0.117759
v 0.004375 0.005655 0.117759
v 0.006256 0.001646 0.066220
v 0.008083 0.001553 0.065548
v 0.009908 0.001642 0.066162
v 0.010114 0.005655 0.117759
v 0.008548 0.005655 0.117759
v -0.011840 0.000651 0.043334
v -0.003803 0.000308 0.032545
v -0.003915 0.002670 0.032478
v -0.011895 -0.001719 0.043441
v -0.014420 -0.000006 0.046946
v -0.014438 -0.002385 0.047343
v -0.008491 0.004122 0.117890
v -0.008491 0.005655 0.117759
v -0.001209 0.001638 0.066004
v -0.001786 0.004122 0.117890
v -0.001786 0.005655 0.117759
v -0.001092 -0.000742 0.065706
v 0.000074 0.001572 0.065061
v 0.001169 -0.000794 0.065263
v 0.002361 0.001558 0.065367
v 0.002415 -0.000718 0.065978
v 0.003050 0.004122 0.117890
v 0.003050 0.005655 0.117759
v 0.006256 0.001646 0.066220
v 0.004375 0.004122 0.117890
v 0.004375 0.005655 0.117759
v 0.006333 -0.000659 0.066179
v 0.008083 0.001553 0.065548
v 0.008083 -0.000693 0.065801
v 0.009826 -0.000678 0.066149
v 0.009908 0.001642 0.066162
v 0.008548 0.004122 0.117890
v 0.008548 0.005655 0.117759
v -0.008571 0.001553 0.065644
v -0.007242 0.004122 0.117890
v -0.007242 0.005655 0.117759
v -0.008619 -0.000706 0.066016
v -0.006294 -0.000794 0.065263
v -0.005281 0.001480 0.065685
v -0.005056 -0.000712 0.066020
v -0.003112 0.004122 0.117890
v -0.003112 0.005655 0.117759
v 0.003834 0.002449 0.032191
v 0.003808 0.000042 0.031677
v 0.011151 -0.001580 0.043351
v 0.011789 0.000645 0.043328
v 0.015082 0.000124 0.048391
v 0.015108 -0.002274 0.048468
v 0.010114 0.004122 0.117890
v 0.010114 0.005655 0.117759
v 0.008548 0.005655 0.117759
v 0.008548 0.004122 0.117890
v 0.003834 0.002449 0.032191
v 0.003846 -0.000000 -0.004157
v 0.003808 0.000042 0.031677
v 0.003834 0.002375 -0.003826
v 0.007425 0.002375 -0.064646
v 0.007425 -0.000000 -0.064646
v 0.010620 0.003292 -0.104408
v 0.010441 -0.000843 -0.098078
v 0.009260 -0.000772 -0.107895
v 0.006512 0.003324 -0.110975
v 0.005784 -0.000780 -0.111016
v -0.005429 -0.000836 -0.111112
v -0.007023 0.003281 -0.110517
v -0.009189 -0.000764 -0.107982
v -0.010580 0.003376 -0.105276
v -0.010450 -0.000877 -0.098139
v -0.007425 -0.000000 -0.064646
v -0.007425 0.002375 -0.064646
v -0.003840 0.000000 -0.003981
v -0.003831 0.002375 -0.003739
v -0.003915 0.002670 0.032478
v -0.003803 0.000308 0.032545
vt 0.010925 0.005859
vt 0.010925 0.002441
vt 0.014679 0.002441
vt 0.014679 0.005859
vt 0.002396 0.005859
vt 0.002396 0.002441
vt 0.006142 0.002441
vt 0.006142 0.005859
vt 0.019455 0.005859
vt 0.019455 0.002441
vt 0.023209 0.002441
vt 0.023209 0.005859
vt 0.406738 0.085938
vt 0.414551 0.123047
vt 0.406982 0.114258
vt 0.414307 0.076660
vt 0.438965 0.125488
vt 0.438965 0.073730
vt 0.520508 0.117676
vt 0.520508 0.081543
vt 0.667969 0.108887
vt 0.668457 0.090332
vt 0.755371 0.108887
vt 0.757324 0.090332
vt 0.784180 0.126953
vt 0.784668 0.070801
vt 0.794434 0.064453
vt 0.796875 0.136230
vt 0.966797 0.079102
vt 0.839844 0.078613
vt 0.966797 0.082031
vt 0.837891 0.084473
vt 0.839355 0.097168
vt 0.839844 0.087402
vt 0.966797 0.091797
vt 0.966797 0.095215
vt 0.837891 0.102539
vt 0.839355 0.119141
vt 0.840332 0.115234
vt 0.840332 0.123535
vt 0.839844 0.105469
vt 0.966797 0.124023
vt 0.966797 0.120605
vt 0.966797 0.110352
vt 0.966797 0.106934
vt 0.911133 0.063965
vt 0.926270 0.019531
vt 0.927246 0.053711
vt 0.913086 0.010742
vt 0.813965 0.055664
vt 0.813965 0.019531
vt 0.665527 0.046875
vt 0.665527 0.027832
vt 0.577637 0.046875
vt 0.577148 0.027832
vt 0.550293 0.065918
vt 0.550293 0.008301
vt 0.541016 0.002441
vt 0.537598 0.074219
vt 0.496826 0.037598
vt 0.495361 0.024414
vt 0.494629 0.034668
vt 0.367920 0.029785
vt 0.367920 0.033203
vt 0.495361 0.016602
vt 0.367920 0.016602
vt 0.367920 0.019531
vt 0.496094 0.042969
vt 0.367920 0.044922
vt 0.367920 0.047852
vt 0.494141 0.052734
vt 0.495605 0.057129
vt 0.494141 0.061523
vt 0.367920 0.062012
vt 0.367920 0.058105
vt 0.981934 0.162598
vt 0.987305 0.194824
vt 0.981445 0.194824
vt 0.987305 0.162109
vt 0.981934 0.150879
vt 0.987793 0.150879
vt 0.987305 0.002441
vt 0.981934 0.002441
vt 0.945801 0.272461
vt 0.941406 0.145996
vt 0.944824 0.145996
vt 0.940430 0.273926
vt 0.945801 0.276367
vt 0.940430 0.279297
vt 0.945801 0.281250
vt 0.940430 0.282227
vt 0.941406 0.409668
vt 0.944824 0.409668
vt 0.139648 0.816772
vt 0.265625 0.812134
vt 0.265625 0.815796
vt 0.139038 0.811157
vt 0.134033 0.816528
vt 0.134033 0.811157
vt 0.129028 0.811157
vt 0.128540 0.816772
vt 0.002396 0.812134
vt 0.002396 0.815796
vt 0.681152 0.002930
vt 0.553711 0.007324
vt 0.553711 0.003418
vt 0.680664 0.008301
vt 0.686523 0.008301
vt 0.689453 0.002930
vt 0.689941 0.008301
vt 0.816895 0.007324
vt 0.816895 0.003418
vt 0.972168 0.005371
vt 0.977539 0.004395
vt 0.977539 0.036133
vt 0.971680 0.037598
vt 0.971680 0.051270
vt 0.977051 0.050781
vt 0.977051 0.190918
vt 0.971680 0.190918
vt 0.971680 0.211426
vt 0.977051 0.211426
vt 0.962402 0.995899
vt 0.873535 0.989937
vt 0.960938 0.990036
vt 0.874512 0.995720
vt 0.726074 0.995720
vt 0.726074 0.989937
vt 0.628418 0.997948
vt 0.644043 0.987885
vt 0.619141 0.988045
vt 0.609375 0.998030
vt 0.607422 0.988029
vt 0.580078 0.987892
vt 0.575684 0.997898
vt 0.567383 0.988068
vt 0.560059 0.998136
vt 0.542969 0.987801
vt 0.460693 0.989937
vt 0.460693 0.995720
vt 0.312500 0.989937
vt 0.312012 0.995720
vt 0.223755 0.996439
vt 0.223511 0.990677
vt1 0.008064 0.303711
vt1 0.174316 0.303711
vt1 0.174316 0.508301
vt1 0.008064 0.508301
vt1 0.008064 0.529297
vt1 0.184448 0.529297
vt1 0.184448 0.733887
vt1 0.008072 0.733887
vt1 0.217651 0.750000
vt1 0.217651 0.573730
vt1 0.422363 0.573730
vt1 0.422363 0.750000
vt1 0.008598 0.774658
vt1 0.022247 0.839478
vt1 0.009003 0.824219
vt1 0.021774 0.758057
vt1 0.065002 0.844360
vt1 0.065002 0.752930
vt1 0.208618 0.830444
vt1 0.208618 0.766846
vt1 0.467285 0.815063
vt1 0.468018 0.782227
vt1 0.620605 0.814941
vt1 0.624023 0.782349
vt1 0.670898 0.846313
vt1 0.671387 0.747803
vt1 0.688477 0.737061
vt1 0.693359 0.863281
vt1 0.991699 0.762329
vt1 0.769043 0.761719
vt1 0.991699 0.767700
vt1 0.765625 0.771729
vt1 0.767578 0.793945
vt1 0.769043 0.776978
vt1 0.991699 0.785278
vt1 0.991699 0.791016
vt1 0.765625 0.803589
vt1 0.768066 0.833252
vt1 0.769531 0.825684
vt1 0.769531 0.840698
vt1 0.768555 0.808960
vt1 0.991699 0.841919
vt1 0.991699 0.835205
vt1 0.991699 0.817383
vt1 0.991699 0.811646
vt1 0.961914 0.974350
vt1 0.988770 0.896545
vt1 0.990723 0.956207
vt1 0.965820 0.881165
vt1 0.791016 0.959351
vt1 0.791016 0.895813
vt1 0.530762 0.943970
vt1 0.530273 0.911194
vt1 0.376465 0.943970
vt1 0.375244 0.910828
vt1 0.327881 0.978027
vt1 0.327881 0.876892
vt1 0.312012 0.865845
vt1 0.305908 0.992119
vt1 0.234253 0.927917
vt1 0.231689 0.904968
vt1 0.230225 0.922424
vt1 0.008064 0.914246
vt1 0.008064 0.919922
vt1 0.231812 0.890869
vt1 0.008064 0.891235
vt1 0.008064 0.896545
vt1 0.232910 0.937683
vt1 0.008064 0.940613
vt1 0.008064 0.946289
vt1 0.229248 0.954346
vt1 0.232178 0.962189
vt1 0.229492 0.969971
vt1 0.008064 0.970886
vt1 0.008064 0.964172
vt1 0.189331 0.254883
vt1 0.027145 0.281738
vt1 0.027390 0.252930
vt1 0.190430 0.282227
vt1 0.246216 0.254395
vt1 0.247803 0.282715
vt1 0.991699 0.282715
vt1 0.991699 0.253906
vt1 0.519043 0.185547
vt1 0.991699 0.167969
vt1 0.991699 0.182129
vt1 0.514648 0.164551
vt1 0.504883 0.185547
vt1 0.494873 0.164062
vt1 0.486572 0.185547
vt1 0.482910 0.164062
vt1 0.008064 0.167969
vt1 0.008064 0.182129
vt1 0.520508 0.137207
vt1 0.991699 0.119629
vt1 0.991699 0.133301
vt1 0.518555 0.116211
vt1 0.499756 0.136230
vt1 0.499756 0.116211
vt1 0.481201 0.116211
vt1 0.479248 0.137207
vt1 0.008064 0.119629
vt1 0.008064 0.133301
vt1 0.483887 0.067871
vt1 0.008064 0.084961
vt1 0.008064 0.071289
vt1 0.482422 0.088867
vt1 0.504883 0.088867
vt1 0.515625 0.068848
vt1 0.517090 0.088867
vt1 0.991699 0.084961
vt1 0.991699 0.071289
vt1 0.977539 0.211914
vt1 0.982910 0.235352
vt1 0.833008 0.235840
vt1 0.828125 0.208984
vt1 0.762695 0.208496
vt1 0.764160 0.233887
vt1 0.105042 0.233887
vt1 0.105042 0.208984
vt1 0.008064 0.208984
vt1 0.008064 0.233887
vt1 0.996094 0.038086
vt1 0.876953 0.030273
vt1 0.994629 0.030273
vt1 0.878418 0.038086
vt1 0.678223 0.038086
vt1 0.678223 0.030273
vt1 0.546875 0.041016
vt1 0.567871 0.027344
vt1 0.534668 0.027832
vt1 0.521484 0.041016
vt1 0.519043 0.027832
vt1 0.481934 0.027344
vt1 0.476074 0.041016
vt1 0.465088 0.027832
vt1 0.455322 0.041504
vt1 0.431885 0.027344
vt1 0.321289 0.030273
vt1 0.321289 0.038086
vt1 0.122009 0.030273
vt1 0.121216 0.038086
vt1 0.002506 0.039062
vt1 0.002285 0.031250
vn 0.000000 0.086614 1.000000
vn 0.000000 0.086614 1.000000
vn 0.000000 0.086614 1.000000
vn 0.000000 0.086614 1.000000
vn 0.000000 0.086614 1.000000
vn 0.000000 0.086614 1.000000
vn 0.000000 0.086614 1.000000
vn 0.000000 0.086614 1.000000
vn 0.000000 0.086614 1.000000
vn 0.000000 0.086614 1.000000
vn 0.000000 0.086614 1.000000
vn 0.000000 0.086614 1.000000
vn 0.000000 -1.000000 0.000000
vn 0.000000 -1.000000 0.000000
vn 0.000000 -1.000000 0.000000
vn 0.000000 -1.000000 0.000000
vn 0.000000 -1.000000 0.007874
vn 0.000000 -1.000000 0.007874
vn 0.000000 -1.000000 0.015748
vn 0.000000 -1.000000 0.015748
vn 0.000000 -1.000000 0.000000
vn 0.000000 -1.000000 0.000000
vn 0.000000 -1.000000 0.000000
vn 0.000000 -1.000000 -0.007874
vn 0.000000 -0.944882 -0.338583
vn 0.000000 -0.944882 -0.338583
vn 0.000000 -1.000000 0.078740
vn 0.000000 -0.992126 0.094488
vn -0.015748 -0.992126 0.094488
vn -0.015748 -0.992126 0.094488
vn -0.015748 -0.992126 0.094488
vn 0.000000 -1.000000 0.086614
vn 0.000000 -1.000000 0.086614
vn 0.000000 -1.000000 0.086614
vn 0.000000 -0.992126 0.094488
vn 0.000000 -0.992126 0.094488
vn 0.000000 -1.000000 0.086614
vn 0.000000 -1.000000 0.086614
vn 0.000000 -1.000000 0.086614
vn 0.015748 -0.992126 0.094488
vn 0.000000 -1.000000 0.086614
vn 0.015748 -0.992126 0.094488
vn 0.015748 -0.992126 0.094488
vn 0.000000 -0.992126 0.094488
vn 0.000000 -0.992126 0.094488
vn 0.000000 1.000000 -0.000000
vn 0.000000 1.000000 -0.000000
vn 0.000000 1.000000 -0.000000
vn 0.000000 1.000000 0.007874
vn 0.000000 1.000000 0.015748
vn 0.000000 1.000000 0.015748
vn 0.000000 1.000000 -0.000000
vn 0.000000 1.000000 -0.000000
vn 0.000000 1.000000 0.007874
vn 0.000000 1.000000 0.007874
vn 0.000000 0.937008 0.346457
vn 0.000000 0.944882 0.330709
vn 0.000000 1.000000 -0.078740
vn 0.000000 0.992126 -0.094488
vn 0.000000 1.000000 -0.086614
vn 0.000000 1.000000 -0.086614
vn 0.000000 1.000000 -0.078740
vn 0.000000 1.000000 -0.078740
vn 0.000000 1.000000 -0.078740
vn -0.015748 1.000000 -0.078740
vn -0.015748 1.000000 -0.078740
vn -0.015748 1.000000 -0.078740
vn 0.000000 1.000000 -0.086614
vn 0.000000 1.000000 -0.078740
vn 0.000000 1.000000 -0.078740
vn 0.000000 1.000000 -0.078740
vn 0.000000 1.000000 -0.086614
vn 0.015748 1.000000 -0.078740
vn 0.015748 1.000000 -0.078740
vn 0.015748 1.000000 -0.078740
vn -0.795276 -0.000000 -0.606299
vn -0.881890 -0.000000 -0.472441
vn -0.913386 -0.000000 -0.409449
vn -0.850394 -0.007874 -0.535433
vn -1.000000 -0.007874 -0.062992
vn -1.000000 -0.007874 -0.078740
vn -1.000000 0.007874 0.086614
vn -1.000000 0.007874 0.086614
vn 0.976378 0.015748 0.212598
vn 1.000000 0.000000 0.007874
vn 1.000000 0.000000 0.007874
vn 0.968504 0.023622 0.251968
vn 0.244094 0.078740 0.968504
vn -0.244094 0.078740 0.968504
vn -0.968504 0.023622 0.236220
vn -0.976378 0.015748 0.228346
vn -1.000000 0.000000 0.007874
vn -1.000000 0.000000 0.007874
vn 0.976378 0.015748 0.228346
vn 1.000000 0.000000 0.039370
vn 1.000000 0.000000 0.039370
vn 0.968504 0.023622 0.244094
vn 0.000000 0.086614 1.000000
vn 0.000000 0.086614 1.000000
vn -0.976378 0.015748 0.212598
vn -0.976378 0.015748 0.196850
vn -1.000000 -0.000000 -0.023622
vn -1.000000 -0.000000 -0.023622
vn 0.976378 0.015748 0.212598
vn 1.000000 -0.000000 -0.031496
vn 1.000000 -0.000000 -0.031496
vn 0.976378 0.015748 0.220472
vn -0.244094 0.078740 0.968504
vn -0.960630 0.023622 0.267716
vn -0.968504 0.023622 0.244094
vn -1.000000 0.000000 0.039370
vn -1.000000 0.000000 0.039370
vn 0.913386 -0.000000 -0.401575
vn 0.944882 -0.000000 -0.314961
vn 0.748031 -0.000000 -0.661417
vn 0.811024 -0.007874 -0.590551
vn 0.992126 -0.015748 -0.141732
vn 0.984252 -0.015748 -0.157480
vn 0.685039 0.062992 0.732283
vn 0.685039 0.062992 0.732283
vn 0.000000 0.086614 1.000000
vn 0.000000 0.086614 1.000000
vn 1.000000 0.000000 0.000000
vn 1.000000 0.000000 0.023622
vn 1.000000 0.000000 0.000000
vn 1.000000 0.000000 0.023622
vn 1.000000 0.000000 0.078740
vn 1.000000 0.000000 0.078740
vn 1.000000 -0.000000 -0.023622
vn 1.000000 0.000000 0.031496
vn 0.913386 -0.000000 -0.409449
vn 0.370079 -0.000000 -0.929134
vn 0.307087 -0.000000 -0.952756
vn -0.251969 -0.000000 -0.968504
vn -0.480315 -0.000000 -0.881890
vn -0.905512 -0.000000 -0.417323
vn -1.000000 -0.000000 -0.039370
vn -1.000000 0.000000 0.031496
vn -1.000000 0.000000 0.078740
vn -1.000000 0.000000 0.078740
vn -1.000000 0.000000 0.023622
vn -1.000000 0.000000 0.023622
vn -1.000000 0.000000 0.000000
vn -1.000000 0.000000 0.000000
tan 1.000000 0.000000 0.000000 1.000000
tan 1.000000 0.000000 0.000000 1.000000
tan 1.000000 0.000000 0.000000 1.000000
tan 1.000000 0.000000 0.000000 1.000000
tan 1.000000 0.000000 0.000000 1.000000
tan 1.000000 0.000000 0.000000 1.000000
tan 1.000000 0.000000 0.000000 1.000000
tan 1.000000 0.000000 0.000000 1.000000
tan 1.000000 0.000000 0.000000 1.000000
tan 1.000000 0.000000 0.000000 1.000000
tan 1.000000 0.000000 0.000000 1.000000
tan 1.000000 0.000000 0.000000 1.000000
tan -1.000000 0.000000 0.023622 1.000000
tan -1.000000 0.000000 0.000000 1.000000
tan -1.000000 -0.000000 -0.039370 1.000000
tan -1.000000 0.000000 0.000000 1.000000
tan -1.000000 0.000124 0.015748 1.000000
tan -1.000000 -0.000062 -0.007874 1.000000
tan -1.000000 0.000000 0.000000 1.000000
tan -1.000000 0.000000 0.000000 1.000000
tan -1.000000 0.000000 0.000000 1.000000
tan -1.000000 0.000000 0.000000 1.000000
tan -1.000000 0.000000 0.000000 1.000000
tan -1.000000 0.000000 0.000000 1.000000
tan -0.944882 0.000000 0.000000 1.000000
tan -0.947548 0.000000 0.000000 1.000000
tan -1.000000 0.000000 0.000000 1.000000
tan -0.992126 0.000000 0.000000 1.000000
tan -0.992126 0.015748 -0.000000 1.000000
tan -0.992126 0.015748 -0.000000 1.000000
tan -0.992126 0.015748 -0.000000 1.000000
tan -1.000000 0.000000 0.000000 1.000000
tan -1.000000 0.000000 0.000000 1.000000
tan -1.000000 0.000000 0.000000 1.000000
tan -0.992126 0.000000 0.000000 1.000000
tan -0.992126 0.000000 0.000000 1.000000
tan -1.000000 0.000000 0.000000 1.000000
tan -1.000000 0.000000 0.000000 1.000000
tan -1.000000 0.000000 0.000000 1.000000
tan -0.992126 -0.015748 0.000000 1.000000
tan -1.000000 0.000000 0.000000 1.000000
tan -0.992126 -0.015748 0.000000 1.000000
tan -0.992126 -0.015748 0.000000 1.000000
tan -0.992126 0.000000 0.000000 1.000000
tan -0.992126 0.000000 0.000000 1.000000
tan -1.000000 0.000000 0.007874 1.000000
tan -1.000000 0.000000 0.023622 1.000000
tan -1.000000 -0.000000 -0.047244 1.000000
tan -1.000000 0.000062 -0.007874 1.000000
tan -1.000000 0.000000 0.000000 1.000000
tan -1.000000 0.000000 0.000000 1.000000
tan -1.000000 0.000000 0.000000 1.000000
tan -1.000000 0.000000 0.000000 1.000000
tan -1.000000 0.000000 0.000000 1.000000
tan -1.000000 0.000000 0.000000 1.000000
tan -0.939736 0.000000 0.000000 1.000000
tan -0.947486 0.000000 0.000000 1.000000
tan -1.000000 0.000000 0.000000 1.000000
tan -0.992126 0.000000 0.000000 1.000000
tan -1.000000 0.000000 0.000000 1.000000
tan -1.000000 0.000000 0.000000 1.000000
tan -1.000000 0.000000 0.000000 1.000000
tan -1.000000 0.000000 0.000000 1.000000
tan -1.000000 0.000000 0.000000 1.000000
tan -1.000000 -0.015748 0.000000 1.000000
tan -1.000000 -0.015748 0.000000 1.000000
tan -1.000000 -0.015748 0.000000 1.000000
tan -1.000000 0.000000 0.000000 1.000000
tan -1.000000 0.000000 0.000000 1.000000
tan -1.000000 0.000000 0.000000 1.000000
tan -1.000000 0.000000 0.000000 1.000000
tan -1.000000 0.000000 0.000000 1.000000
tan -1.000000 0.015748 -0.000000 1.000000
tan -1.000000 0.015748 -0.000000 1.000000
tan -1.000000 0.015748 -0.000000 1.000000
tan -0.606299 0.006262 0.795275 1.000000
tan -0.472441 0.000000 0.881890 1.000000
tan -0.409449 0.000000 0.913386 1.000000
tan -0.535619 0.020088 0.850394 1.000000
tan -0.063612 0.078740 1.000000 1.000000
tan -0.079360 0.078740 1.000000 1.000000
tan 0.087296 0.086614 1.000000 1.000000
tan 0.087296 0.086614 1.000000 1.000000
tan -0.213838 0.076880 0.976378 1.000000
tan -0.007874 0.086614 1.000000 1.000000
tan -0.007874 0.086614 1.000000 1.000000
tan -0.253642 0.068634 0.968504 1.000000
tan -0.969124 0.001922 0.244094 1.000000
tan -0.969124 -0.001922 -0.244094 1.000000
tan -0.237894 -0.068634 -0.968504 1.000000
tan -0.229586 -0.076880 -0.976378 1.000000
tan -0.007874 -0.086614 -1.000000 1.000000
tan -0.007874 -0.086614 -1.000000 1.000000
tan -0.005952 -0.968690 0.092256 1.000000
tan -0.003410 -1.000000 0.086614 1.000000
tan -0.003410 -1.000000 0.086614 1.000000
tan -0.001550 -0.960878 0.099138 1.000000
tan 0.000000 -1.000000 0.086614 1.000000
tan 0.000000 -1.000000 0.086614 1.000000
tan 0.004464 -0.968690 0.092256 1.000000
tan 0.002976 -0.968690 0.092256 1.000000
tan -0.002046 -1.000000 0.086614 1.000000
tan -0.002046 -1.000000 0.086614 1.000000
tan 0.006138 0.968690 -0.099944 1.000000
tan -0.002728 1.000000 -0.086614 1.000000
tan -0.002728 1.000000 -0.086614 1.000000
tan 0.006944 0.968690 -0.099944 1.000000
tan -0.021638 0.972348 -0.084506 1.000000
tan -0.003968 0.953066 -0.098332 1.000000
tan -0.001550 0.960878 -0.099138 1.000000
tan -0.003410 1.000000 -0.086614 1.000000
tan -0.003410 1.000000 -0.086614 1.000000
tan -0.401575 -0.000000 -0.913386 1.000000
tan -0.314961 -0.000000 -0.944882 1.000000
tan -0.661417 -0.005890 -0.748031 1.000000
tan -0.590675 -0.012772 -0.811023 1.000000
tan -0.142972 -0.078120 -0.992126 1.000000
tan -0.158720 -0.077500 -0.984252 1.000000
tan 0.734764 -0.026970 -0.685039 1.000000
tan 0.734764 -0.026970 -0.685039 1.000000
tan 1.000000 0.000000 0.000000 1.000000
tan 1.000000 0.000000 0.000000 1.000000
tan 0.000000 -1.000000 0.000000 1.000000
tan 0.000000 -1.000000 0.000000 1.000000
tan 0.000000 -1.000000 0.000000 1.000000
tan 0.000000 -1.000000 0.000000 1.000000
tan 0.000000 -1.000000 0.000000 1.000000
tan 0.000000 -1.000000 0.000000 1.000000
tan 0.000000 -1.000000 0.000000 1.000000
tan 0.000000 -1.000000 0.000000 1.000000
tan 0.000000 -0.926282 0.000000 1.000000
tan 0.000000 -0.943704 0.000000 1.000000
tan 0.000000 -0.955174 0.000000 1.000000
tan 0.000000 -0.968504 0.000000 1.000000
tan 0.000000 -0.939240 0.000000 1.000000
tan 0.000000 -0.921942 0.000000 1.000000
tan 0.000000 -1.000000 0.000000 1.000000
tan 0.000000 -1.000000 0.000000 1.000000
tan 0.000000 -1.000000 0.000000 1.000000
tan 0.000000 -1.000000 0.000000 1.000000
tan 0.000000 -1.000000 0.000000 1.000000
tan 0.000000 -1.000000 0.000000 1.000000
tan 0.000000 -1.000000 0.000000 1.000000
tan 0.000000 -1.000000 0.000000 1.000000
f 3/3/3 2/2/2 1/1/1
f 4/4/4 3/3/3 1/1/1
f 7/7/7 6/6/6 5/5/5
f 8/8/8 7/7/7 5/5/5
f 11/11/11 10/10/10 9/9/9
f 12/12/12 11/11/11 9/9/9
f 15/15/15 14/14/14 13/13/13
f 16/16/16 13/13/13 14/14/14
f 14/14/14 17/17/17 16/16/16
f 18/18/18 16/16/16 17/17/17
f 17/17/17 19/19/19 18/18/18
f 20/20/20 18/18/18 19/19/19
f 19/19/19 21/21/21 20/20/20
f 22/22/22 20/20/20 21/21/21
f 22/22/22 21/21/21 23/23/23
f 23/23/23 24/24/24 22/22/22
f 23/23/23 25/25/25 24/24/24
f 24/24/24 25/25/25 26/26/26
f 26/26/26 25/25/25 27/27/27
f 25/25/25 28/28/28 27/27/27
f 30/30/30 29/29/29 27/27/27
f 31/31/31 29/29/29 30/30/30
f 30/30/30 27/27/27 32/32/32
f 32/32/32 27/27/27 33/33/33
f 27/27/27 28/28/28 33/33/33
f 34/34/34 32/32/32 33/33/33
f 33/33/33 35/35/35 34/34/34
f 36/36/36 35/35/35 33/33/33
f 37/37/37 33/33/33 28/28/28
f 37/37/37 28/28/28 38/38/38
f 39/39/39 37/37/37 38/38/38
f 38/38/38 28/28/28 40/40/40
f 41/41/41 37/37/37 39/39/39
f 40/40/40 28/28/28 42/42/42
f 43/43/43 40/40/40 42/42/42
f 41/41/41 39/39/39 44/44/44
f 44/44/44 45/45/45 41/41/41
f 48/48/48 47/47/47 46/46/46
f 49/49/49 46/46/46 47/47/47
f 46/46/46 49/49/49 50/50/50
f 50/50/50 49/49/49 51/51/51
f 50/50/50 51/51/51 52/52/52
f 53/53/53 52/52/52 51/51/51
f 52/52/52 53/53/53 54/54/54
f 54/54/54 53/53/53 55/55/55
f 54/54/54 55/55/55 56/56/56
f 55/55/55 57/57/57 56/56/56
f 57/57/57 58/58/58 56/56/56
f 59/59/59 56/56/56 58/58/58
f 58/58/58 60/60/60 59/59/59
f 58/58/58 61/61/61 60/60/60
f 62/62/62 60/60/60 61/61/61
f 62/62/62 61/61/61 63/63/63
f 63/63/63 64/64/64 62/62/62
f 58/58/58 65/65/65 61/61/61
f 65/65/65 58/58/58 66/66/66
f 67/67/67 65/65/65 66/66/66
f 68/68/68 59/59/59 60/60/60
f 70/70/70 68/68/68 69/69/69
f 70/70/70 71/71/71 68/68/68
f 71/71/71 72/72/72 68/68/68
f 59/59/59 68/68/68 72/72/72
f 59/59/59 72/72/72 73/73/73
f 73/73/73 74/74/74 59/59/59
f 75/75/75 74/74/74 73/73/73
f 78/78/78 77/77/77 76/76/76
f 79/79/79 76/76/76 77/77/77
f 76/76/76 79/79/79 80/80/80
f 81/81/81 80/80/80 79/79/79
f 81/81/81 82/82/82 80/80/80
f 82/82/82 83/83/83 80/80/80
f 86/86/86 85/85/85 84/84/84
f 87/87/87 84/84/84 85/85/85
f 84/84/84 87/87/87 88/88/88
f 87/87/87 89/89/89 88/88/88
f 88/88/88 89/89/89 90/90/90
f 89/89/89 91/91/91 90/90/90
f 91/91/91 92/92/92 90/90/90
f 92/92/92 93/93/93 90/90/90
f 96/96/96 95/95/95 94/94/94
f 97/97/97 94/94/94 95/95/95
f 94/94/94 97/97/97 98/98/98
f 99/99/99 98/98/98 97/97/97
f 99/99/99 100/100/100 98/98/98
f 98/98/98 100/100/100 101/101/101
f 100/100/100 102/102/102 101/101/101
f 102/102/102 103/103/103 101/101/101
f 106/106/106 105/105/105 104/104/104
f 107/107/107 104/104/104 105/105/105
f 107/107/107 108/108/108 104/104/104
f 104/104/104 108/108/108 109/109/109
f 108/108/108 110/110/110 109/109/109
f 110/110/110 111/111/111 109/109/109
f 111/111/111 112/112/112 109/109/109
f 115/115/115 114/114/114 113/113/113
f 115/115/115 113/113/113 116/116/116
f 116/116/116 117/117/117 115/115/115
f 118/118/118 115/115/115 117/117/117
f 118/118/118 117/117/117 119/119/119
f 120/120/120 119/119/119 117/117/117
f 119/119/119 120/120/120 121/121/121
f 122/122/122 119/119/119 121/121/121
f 125/125/125 124/124/124 123/123/123
f 124/124/124 126/126/126 123/123/123
f 126/126/126 124/124/124 127/127/127
f 128/128/128 127/127/127 124/124/124
f 127/127/127 128/128/128 129/129/129
f 130/130/130 129/129/129 128/128/128
f 131/131/131 129/129/129 130/130/130
f 129/129/129 131/131/131 132/132/132
f 133/133/133 132/132/132 131/131/131
f 133/133/133 134/134/134 132/132/132
f 134/134/134 135/135/135 132/132/132
f 134/134/134 136/136/136 135/135/135
f 136/136/136 137/137/137 135/135/135
f 136/136/136 138/138/138 137/137/137
f 138/138/138 139/139/139 137/137/137
f 139/139/139 140/140/140 137/137/137
f 139/139/139 141/141/141 140/140/140
f 141/141/141 142/142/142 140/140/140
f 142/142/142 141/141/141 143/143/143
f 144/144/144 143/143/143 141/141/141
