mtllib SM_Floor@0000020FDF8C2B00.mtl
g SM_Floor@0000020FDF8C2B00
#Vertices 36
#Indices 150
#Section 0 Offset 0 NumIndices 150 MaterialIndex 0 MI_EpoxyFlooring
v 3.000000 0.000000 -2.400000 0.090196 0.000000 0.000000 1.000000
v 2.400000 0.000000 -3.000000 0.000000 0.000000 0.000000 1.000000
v 3.000000 0.000000 -3.000000 0.000000 0.000000 0.000000 1.000000
v 2.400000 0.000000 -2.400000 0.000000 0.000000 0.000000 1.000000
v 3.000000 0.000000 -1.800000 0.149020 0.000000 0.000000 1.000000
v 1.800000 0.000000 -3.000000 0.000000 0.070588 0.070588 1.000000
v 2.400000 0.000000 -1.800000 1.000000 0.129412 0.129412 1.000000
v 3.000000 0.000000 -1.200000 0.000000 0.000000 0.000000 1.000000
v 1.800000 0.000000 -2.400000 0.000000 0.000000 0.000000 1.000000
v 1.200000 0.000000 -3.000000 0.137255 0.137255 0.137255 1.000000
v 2.400000 0.000000 -1.200000 0.074510 0.074510 0.074510 1.000000
v 3.000000 0.000000 -0.600000 0.000000 0.000000 0.000000 1.000000
v 1.800000 0.000000 -1.800000 0.000000 0.000000 0.000000 1.000000
v 1.200000 0.000000 -2.400000 0.031373 0.031373 0.031373 1.000000
v 0.600000 0.000000 -3.000000 0.156863 0.156863 0.156863 1.000000
v 2.400000 0.000000 -0.600000 0.000000 0.000000 0.000000 1.000000
v 3.000000 0.000000 0.000000 0.141176 0.141176 0.141176 1.000000
v 2.400000 0.000000 0.000000 0.000000 0.000000 0.000000 1.000000
v 0.600000 0.000000 -2.400000 0.023529 0.023529 0.023529 1.000000
v 0.000000 0.000000 -3.000000 0.070588 0.070588 0.070588 1.000000
v 0.000000 0.000000 -2.400000 0.000000 0.000000 0.000000 1.000000
v 1.200000 0.000000 -1.800000 0.000000 0.000000 0.000000 1.000000
v 0.600000 0.000000 -1.800000 0.000000 0.000000 0.000000 1.000000
v 0.000000 0.000000 -1.800000 0.039216 0.039216 0.039216 1.000000
v 1.800000 0.000000 -1.200000 0.011765 0.000000 0.000000 1.000000
v 1.200000 0.000000 -1.200000 0.011765 0.000000 0.000000 1.000000
v 0.600000 0.000000 -1.200000 0.031373 0.000000 0.000000 1.000000
v 0.000000 0.000000 -1.200000 0.031373 0.000000 0.000000 1.000000
v 1.800000 0.000000 -0.600000 0.000000 0.000000 0.000000 1.000000
v 1.800000 0.000000 0.000000 0.000000 0.000000 0.000000 1.000000
v 1.200000 0.000000 -0.600000 0.000000 0.000000 0.000000 1.000000
v 1.200000 0.000000 0.000000 0.517647 0.000000 0.000000 1.000000
v 0.600000 0.000000 -0.600000 0.015686 0.047059 0.047059 1.000000
v 0.600000 0.000000 0.000000 0.160784 0.000000 0.000000 1.000000
v 0.000000 0.000000 -0.600000 0.286275 0.129412 0.129412 1.000000
v 0.000000 0.000000 0.000000 0.054902 0.054902 0.054902 1.000000
vt 1.000000 0.200195
vt 0.799805 0.000000
vt 1.000000 0.000000
vt 0.799805 0.200195
vt 1.000000 0.400391
vt 0.599609 0.000000
vt 0.799805 0.400391
vt 1.000000 0.600098
vt 0.599609 0.200195
vt 0.399902 0.000000
vt 0.799805 0.600098
vt 1.000000 0.800049
vt 0.599609 0.400391
vt 0.399902 0.200195
vt 0.199951 0.000000
vt 0.799805 0.800049
vt 1.000000 1.000000
vt 0.799805 1.000000
vt 0.199951 0.200195
vt 0.000000 0.000000
vt 0.000000 0.200195
vt 0.399902 0.400391
vt 0.199951 0.400391
vt 0.000000 0.400391
vt 0.599609 0.600098
vt 0.399902 0.600098
vt 0.199951 0.600098
vt 0.000000 0.600098
vt 0.599609 0.800049
vt 0.599609 1.000000
vt 0.399902 0.800049
vt 0.399902 1.000000
vt 0.199951 0.800049
vt 0.199951 1.000000
vt 0.000000 0.800049
vt 0.000000 1.000000
vt1 0.991699 0.205078
vt1 0.794922 0.008301
vt1 0.991699 0.008301
vt1 0.794922 0.205078
vt1 0.991699 0.401855
vt1 0.598145 0.008301
vt1 0.794922 0.401855
vt1 0.991699 0.598389
vt1 0.598145 0.205078
vt1 0.401611 0.008301
vt1 0.794922 0.598389
vt1 0.991699 0.795166
vt1 0.598145 0.401855
vt1 0.401611 0.205078
vt1 0.204834 0.008301
vt1 0.794922 0.795166
vt1 0.991699 0.991936
vt1 0.794922 0.991936
vt1 0.204834 0.205078
vt1 0.008064 0.008301
vt1 0.008064 0.205078
vt1 0.401611 0.401855
vt1 0.204834 0.401855
vt1 0.008064 0.401855
vt1 0.598145 0.598389
vt1 0.401611 0.598389
vt1 0.204834 0.598389
vt1 0.008064 0.598389
vt1 0.598145 0.795166
vt1 0.598145 0.991936
vt1 0.401611 0.795166
vt1 0.401611 0.991936
vt1 0.204834 0.795166
vt1 0.204834 0.991936
vt1 0.008064 0.795166
vt1 0.008064 0.991936
vn 0.000000 1.000000 -0.000000
vn 0.000000 1.000000 -0.000000
vn 0.000000 1.000000 -0.000000
vn 0.000000 1.000000 -0.000000
vn 0.000000 1.000000 -0.000000
vn 0.000000 1.000000 -0.000000
vn 0.000000 1.000000 -0.000000
vn 0.000000 1.000000 -0.000000
vn 0.000000 1.000000 -0.000000
vn 0.000000 1.000000 -0.000000
vn 0.000000 1.000000 -0.000000
vn 0.000000 1.000000 -0.000000
vn 0.000000 1.000000 -0.000000
vn 0.000000 1.000000 -0.000000
vn 0.000000 1.000000 -0.000000
vn 0.000000 1.000000 -0.000000
vn 0.000000 1.000000 -0.000000
vn 0.000000 1.000000 -0.000000
vn 0.000000 1.000000 -0.000000
vn 0.000000 1.000000 -0.000000
vn 0.000000 1.000000 -0.000000
vn 0.000000 1.000000 -0.000000
vn 0.000000 1.000000 -0.000000
vn 0.000000 1.000000 -0.000000
vn 0.000000 1.000000 -0.000000
vn 0.000000 1.000000 -0.000000
vn 0.000000 1.000000 -0.000000
vn 0.000000 1.000000 -0.000000
vn 0.000000 1.000000 -0.000000
vn 0.000000 1.000000 -0.000000
vn 0.000000 1.000000 -0.000000
vn 0.000000 1.000000 -0.000000
vn 0.000000 1.000000 -0.000000
vn 0.000000 1.000000 -0.000000
vn 0.000000 1.000000 -0.000000
vn 0.000000 1.000000 -0.000000
tan 0.000000 -0.000000 -1.000000 1.000000
tan 0.000000 -0.000000 -1.000000 1.000000
tan 0.000000 -0.000000 -1.000000 1.000000
tan 0.000000 -0.000000 -1.000000 1.000000
tan 0.000000 -0.000000 -1.000000 1.000000
tan 0.000000 -0.000000 -1.000000 1.000000
tan 0.000000 -0.000000 -1.000000 1.000000
tan 0.000000 -0.000000 -1.000000 1.000000
tan 0.000000 -0.000000 -1.000000 1.000000
tan 0.000000 -0.000000 -1.000000 1.000000
tan 0.000000 -0.000000 -1.000000 1.000000
tan 0.000000 -0.000000 -1.000000 1.000000
tan 0.000000 -0.000000 -1.000000 1.000000
tan 0.000000 -0.000000 -1.000000 1.000000
tan 0.000000 -0.000000 -1.000000 1.000000
tan 0.000000 -0.000000 -1.000000 1.000000
tan 0.000000 -0.000000 -1.000000 1.000000
tan 0.000000 -0.000000 -1.000000 1.000000
tan 0.000000 -0.000000 -1.000000 1.000000
tan 0.000000 -0.000000 -1.000000 1.000000
tan 0.000000 -0.000000 -1.000000 1.000000
tan 0.000000 -0.000000 -1.000000 1.000000
tan 0.000000 -0.000000 -1.000000 1.000000
tan 0.000000 -0.000000 -1.000000 1.000000
tan 0.000000 -0.000000 -1.000000 1.000000
tan 0.000000 -0.000000 -1.000000 1.000000
tan 0.000000 -0.000000 -1.000000 1.000000
tan 0.000000 -0.000000 -1.000000 1.000000
tan 0.000000 -0.000000 -1.000000 1.000000
tan 0.000000 -0.000000 -1.000000 1.000000
tan 0.000000 -0.000000 -1.000000 1.000000
tan 0.000000 -0.000000 -1.000000 1.000000
tan 0.000000 -0.000000 -1.000000 1.000000
tan 0.000000 -0.000000 -1.000000 1.000000
tan 0.000000 -0.000000 -1.000000 1.000000
tan 0.000000 -0.000000 -1.000000 1.000000
f 3/3/3 2/2/2 1/1/1
f 2/2/2 4/4/4 1/1/1
f 1/1/1 4/4/4 5/5/5
f 2/2/2 6/6/6 4/4/4
f 4/4/4 7/7/7 5/5/5
f 5/5/5 7/7/7 8/8/8
f 6/6/6 9/9/9 4/4/4
f 4/4/4 9/9/9 7/7/7
f 6/6/6 10/10/10 9/9/9
f 7/7/7 11/11/11 8/8/8
f 8/8/8 11/11/11 12/12/12
f 9/9/9 13/13/13 7/7/7
f 7/7/7 13/13/13 11/11/11
f 10/10/10 14/14/14 9/9/9
f 9/9/9 14/14/14 13/13/13
f 10/10/10 15/15/15 14/14/14
f 11/11/11 16/16/16 12/12/12
f 12/12/12 16/16/16 17/17/17
f 16/16/16 18/18/18 17/17/17
f 15/15/15 19/19/19 14/14/14
f 15/15/15 20/20/20 19/19/19
f 20/20/20 21/21/21 19/19/19
f 14/14/14 19/19/19 22/22/22
f 14/14/14 22/22/22 13/13/13
f 19/19/19 21/21/21 23/23/23
f 19/19/19 23/23/23 22/22/22
f 21/21/21 24/24/24 23/23/23
f 13/13/13 22/22/22 25/25/25
f 13/13/13 25/25/25 11/11/11
f 11/11/11 25/25/25 16/16/16
f 22/22/22 23/23/23 26/26/26
f 22/22/22 26/26/26 25/25/25
f 23/23/23 24/24/24 27/27/27
f 23/23/23 27/27/27 26/26/26
f 24/24/24 28/28/28 27/27/27
f 25/25/25 29/29/29 16/16/16
f 25/25/25 26/26/26 29/29/29
f 16/16/16 29/29/29 18/18/18
f 29/29/29 30/30/30 18/18/18
f 26/26/26 31/31/31 29/29/29
f 29/29/29 31/31/31 30/30/30
f 26/26/26 27/27/27 31/31/31
f 31/31/31 32/32/32 30/30/30
f 27/27/27 33/33/33 31/31/31
f 31/31/31 33/33/33 32/32/32
f 27/27/27 28/28/28 33/33/33
f 33/33/33 34/34/34 32/32/32
f 28/28/28 35/35/35 33/33/33
f 33/33/33 35/35/35 34/34/34
f 35/35/35 36/36/36 34/34/34
