mtllib SM_Plate_LOD2.mtl
g SM_Plate_LOD2
#Vertices 126
#Indices 480
#Section 0 Offset 0 NumIndices 480 MaterialIndex 0 MM_KProps
v 0.020059 0.022767 -0.110342
v -0.010921 0.022686 -0.110886
v -0.010688 0.013955 -0.108512
v 0.052570 0.010170 -0.092041
v -0.009801 0.000855 -0.099324
v 0.019691 0.002689 -0.097838
v 0.052647 0.000645 -0.086014
v 0.055760 0.022351 -0.097201
v 0.070967 0.002601 -0.070080
v 0.095197 0.010080 -0.052135
v 0.079484 0.023060 -0.078175
v 0.087536 0.000650 -0.049351
v 0.097762 0.022622 -0.054457
v 0.100382 0.000735 -0.017017
v 0.110414 0.022169 -0.017474
v 0.098404 0.002410 0.017815
v 0.103415 0.010829 0.033292
v 0.109369 0.023054 0.021639
v 0.090181 0.000637 0.043964
v 0.097170 0.022426 0.055794
v 0.070465 0.002826 0.070146
v 0.077814 0.014012 0.077647
v 0.077123 0.023239 0.080288
v 0.052524 0.022686 0.098266
v 0.030759 0.009483 0.102600
v 0.027312 0.001771 0.096546
v 0.020315 0.022405 0.110379
v -0.010115 0.008775 0.102904
v -0.009712 0.000647 0.100655
v -0.010921 0.022686 0.110886
v -0.044391 0.001682 0.090018
v -0.010115 0.008775 0.102904
v -0.009712 0.000647 0.100655
v -0.048161 0.009580 0.095649
v -0.010921 0.022686 0.110886
v -0.083075 0.002693 0.055189
v -0.043757 0.023121 0.103019
v -0.080110 0.022946 0.079079
v -0.094947 0.000839 0.025597
v -0.091087 0.013983 0.061718
v -0.104615 0.022028 0.039807
v -0.111823 0.013928 -0.009175
v -0.111965 0.023259 0.000223
v -0.103127 0.022055 -0.043071
v -0.090464 0.009364 -0.056378
v -0.099733 0.002591 -0.000236
v -0.085987 0.023786 -0.070113
v -0.093905 0.000729 -0.037495
v -0.074097 0.000681 -0.068655
v -0.062535 0.022114 -0.093698
v -0.053484 0.002157 -0.085250
v -0.048031 0.010725 -0.094050
v -0.032344 0.022686 -0.106625
v -0.009801 0.000855 -0.099324
v -0.010921 0.022686 -0.110886
v -0.010688 0.013955 -0.108512
v 0.098404 0.002410 0.017815
v 0.100382 0.000735 -0.017017
v 0.090181 0.000637 0.043964
v 0.000000 -0.000000 0.000000
v 0.087536 0.000650 -0.049351
v 0.070967 0.002601 -0.070080
v 0.052647 0.000645 -0.086014
v 0.019691 0.002689 -0.097838
v -0.009801 0.000855 -0.099324
v -0.074097 0.000681 -0.068655
v -0.053484 0.002157 -0.085250
v -0.093905 0.000729 -0.037495
v -0.099733 0.002591 -0.000236
v -0.094947 0.000839 0.025597
v -0.071323 0.000399 0.068958
v -0.083075 0.002693 0.055189
v -0.044391 0.001682 0.090018
v -0.009712 0.000647 0.100655
v 0.056123 0.000417 0.081667
v 0.027312 0.001771 0.096546
v 0.070465 0.002826 0.070146
v 0.052524 0.022686 0.098266
v 0.020315 0.022405 0.110379
v 0.053538 0.019502 0.090671
v 0.077123 0.023239 0.080288
v 0.008909 0.019233 0.104727
v -0.010921 0.022686 0.110886
v 0.081939 0.019090 0.066842
v 0.097170 0.022426 0.055794
v -0.026372 0.019220 0.102382
v -0.043757 0.023121 0.103019
v 0.101585 0.019740 0.027884
v 0.109369 0.023054 0.021639
v -0.063121 0.019566 0.083920
v -0.080110 0.022946 0.079079
v 0.106608 0.021147 -0.003098
v 0.110414 0.022169 -0.017474
v -0.089228 0.019300 0.056264
v -0.104615 0.022028 0.039807
v 0.101656 0.018842 -0.030576
v 0.097762 0.022622 -0.054457
v -0.104366 0.019737 0.015210
v -0.111965 0.023259 0.000223
v -0.059339 0.016364 0.080409
v -0.094317 0.016368 0.033588
v -0.102564 0.019233 -0.024246
v -0.103127 0.022055 -0.043071
v -0.097795 0.016370 -0.017673
v -0.091332 0.019557 -0.053038
v -0.085987 0.023786 -0.070113
v -0.082673 0.016376 -0.055223
v -0.063047 0.019418 -0.084493
v -0.062535 0.022114 -0.093698
v -0.050469 0.016376 -0.086312
v -0.029862 0.019249 -0.101143
v -0.032344 0.022686 -0.106625
v -0.010921 0.022686 -0.110886
v -0.009667 0.016372 -0.098150
v 0.016682 0.019767 -0.104717
v 0.020059 0.022767 -0.110342
v 0.055760 0.022351 -0.097201
v 0.034275 0.016335 -0.093013
v 0.071400 0.019701 -0.079785
v 0.079484 0.023060 -0.078175
v 0.079593 0.015399 -0.060049
v 0.097051 0.016369 -0.019037
v 0.097437 0.016462 0.026130
v 0.070972 0.016375 0.069722
v 0.031832 0.016371 0.094833
v -0.017597 0.016367 0.097411
vt 0.613770 0.830200
vt 0.669434 0.830200
vt 0.669434 0.847046
vt 0.546875 0.859497
vt 0.668945 0.877625
vt 0.610352 0.876892
vt 0.540039 0.878174
vt 0.545898 0.830200
vt 0.491699 0.876526
vt 0.435791 0.857422
vt 0.491455 0.829834
vt 0.438232 0.878113
vt 0.437500 0.829956
vt 0.369629 0.877136
vt 0.367432 0.830566
vt 0.300293 0.876587
vt 0.274414 0.857910
vt 0.296875 0.829956
vt 0.245605 0.877991
vt 0.231689 0.830078
vt 0.179199 0.876526
vt 0.179443 0.846802
vt 0.174927 0.829590
vt 0.120117 0.830200
vt 0.080200 0.860352
vt 0.077026 0.877563
vt 0.058746 0.830811
vt 0.002075 0.861450
vt 0.002232 0.877625
vt 0.002388 0.830200
vt 0.529785 0.929260
vt 0.603516 0.913635
vt 0.604004 0.929382
vt 0.528320 0.911804
vt 0.603027 0.882812
vt 0.422363 0.928284
vt 0.541016 0.882141
vt 0.461182 0.881897
vt 0.356445 0.926147
vt 0.424072 0.899292
vt 0.376953 0.883606
vt 0.286133 0.899292
vt 0.302979 0.882141
vt 0.222168 0.883423
vt 0.187988 0.912903
vt 0.302002 0.928162
vt 0.163208 0.881104
vt 0.224854 0.929932
vt 0.150391 0.928955
vt 0.102112 0.883362
vt 0.096619 0.928406
vt 0.078735 0.908997
vt 0.042419 0.882812
vt 0.002275 0.929138
vt 0.002394 0.882812
vt 0.002392 0.899353
vt 0.363037 0.695557
vt 0.328369 0.751587
vt 0.376221 0.645752
vt 0.189331 0.620117
vt 0.274658 0.788696
vt 0.227417 0.805298
vt 0.181763 0.809570
vt 0.117432 0.795044
vt 0.070312 0.765137
vt 0.001894 0.649902
vt 0.015701 0.698242
vt 0.003542 0.580811
vt 0.032104 0.515625
vt 0.067688 0.480957
vt 0.149902 0.437988
vt 0.116699 0.445801
vt 0.213989 0.431641
vt 0.279297 0.452637
vt 0.362305 0.551025
vt 0.334229 0.497070
vt 0.374268 0.583740
vt 0.379639 0.079590
vt 0.413818 0.136230
vt 0.363281 0.082031
vt 0.336914 0.039551
vt 0.405762 0.159668
vt 0.426758 0.194336
vt 0.308350 0.038086
vt 0.282959 0.012207
vt 0.414307 0.226562
vt 0.424072 0.258789
vt 0.228882 0.015625
vt 0.214355 0.000977
vt 0.393799 0.301270
vt 0.392578 0.335449
vt 0.169189 0.016602
vt 0.140503 0.014648
vt 0.351807 0.359863
vt 0.328125 0.395996
vt 0.120422 0.037598
vt 0.075989 0.051758
vt 0.281250 0.403320
vt 0.256836 0.425781
vt 0.384033 0.294922
vt 0.310791 0.375977
vt 0.207397 0.414062
vt 0.172363 0.424316
vt 0.217773 0.401367
vt 0.149658 0.404297
vt 0.114807 0.402832
vt 0.143188 0.387207
vt 0.081055 0.363281
vt 0.062988 0.366211
vt 0.074158 0.339355
vt 0.037964 0.307617
vt 0.026550 0.315430
vt 0.010567 0.276855
vt 0.037506 0.268555
vt 0.013687 0.222656
vt -0.000039 0.218750
vt 0.011772 0.146484
vt 0.030930 0.186035
vt 0.039978 0.111816
vt 0.037872 0.094727
vt 0.074951 0.090332
vt 0.144043 0.043457
vt 0.227051 0.025879
vt 0.316895 0.058594
vt 0.377441 0.121582
vt 0.400146 0.211914
vt1 0.789062 0.093262
vt1 0.859863 0.093262
vt1 0.859863 0.115234
vt1 0.703125 0.131348
vt1 0.858887 0.154785
vt1 0.784180 0.153809
vt1 0.694824 0.155273
vt1 0.701660 0.093262
vt1 0.632812 0.153320
vt1 0.561523 0.128418
vt1 0.632324 0.092773
vt1 0.564453 0.155273
vt1 0.563477 0.092773
vt1 0.477051 0.154297
vt1 0.474121 0.093750
vt1 0.388428 0.153320
vt1 0.355225 0.128906
vt1 0.384033 0.092773
vt1 0.318604 0.155273
vt1 0.300781 0.093262
vt1 0.233887 0.153320
vt1 0.234131 0.114746
vt1 0.228394 0.092773
vt1 0.158447 0.093262
vt1 0.107422 0.132324
vt1 0.103394 0.154785
vt1 0.080017 0.094238
vt1 0.007664 0.133789
vt1 0.007858 0.154785
vt1 0.008064 0.093262
vt1 0.667969 0.074219
vt1 0.760254 0.053223
vt1 0.760742 0.074219
vt1 0.666504 0.050781
vt1 0.759766 0.012695
vt1 0.533691 0.072754
vt1 0.682129 0.011719
vt1 0.582031 0.011230
vt1 0.451172 0.069824
vt1 0.535645 0.034668
vt1 0.477051 0.013672
vt1 0.363281 0.034668
vt1 0.384277 0.011719
vt1 0.283203 0.013672
vt1 0.240356 0.052246
vt1 0.383057 0.072754
vt1 0.209351 0.010254
vt1 0.286377 0.074707
vt1 0.193359 0.073730
vt1 0.132812 0.013184
vt1 0.125977 0.072754
vt1 0.103638 0.047363
vt1 0.058167 0.012695
vt1 0.007912 0.073730
vt1 0.008064 0.012695
vt1 0.008064 0.034668
vt1 0.971191 0.510010
vt1 0.926758 0.581787
vt1 0.988281 0.445801
vt1 0.748047 0.413086
vt1 0.857910 0.629639
vt1 0.796875 0.650879
vt1 0.738281 0.656494
vt1 0.655762 0.637695
vt1 0.595215 0.599365
vt1 0.507324 0.451172
vt1 0.524902 0.513184
vt1 0.509277 0.362305
vt1 0.545898 0.278809
vt1 0.591797 0.234375
vt1 0.697266 0.178711
vt1 0.654785 0.188965
vt1 0.779785 0.170898
vt1 0.863770 0.197754
vt1 0.970703 0.324219
vt1 0.934082 0.254883
vt1 0.985840 0.366211
vt1 0.492676 0.545654
vt1 0.536621 0.617920
vt1 0.471924 0.548340
vt1 0.437744 0.494141
vt1 0.526367 0.648682
vt1 0.553223 0.692871
vt1 0.401123 0.492188
vt1 0.368652 0.458984
vt1 0.537109 0.733887
vt1 0.549805 0.775513
vt1 0.299072 0.463379
vt1 0.280518 0.444824
vt1 0.510742 0.830200
vt1 0.509277 0.874268
vt1 0.222412 0.464355
vt1 0.185669 0.461914
vt1 0.457275 0.905396
vt1 0.426758 0.951996
vt1 0.159668 0.491699
vt1 0.102661 0.509766
vt1 0.366455 0.961304
vt1 0.334961 0.989861
vt1 0.498535 0.821777
vt1 0.404297 0.926514
vt1 0.271484 0.975204
vt1 0.226440 0.988037
vt1 0.284912 0.958832
vt1 0.197266 0.962524
vt1 0.152466 0.960724
vt1 0.188965 0.940674
vt1 0.109131 0.909607
vt1 0.085876 0.913879
vt1 0.100281 0.879150
vt1 0.053772 0.838379
vt1 0.039093 0.848389
vt1 0.018555 0.798828
vt1 0.053192 0.788330
vt1 0.022568 0.729248
vt1 0.004936 0.723877
vt1 0.020111 0.631592
vt1 0.044739 0.682129
vt1 0.056366 0.586914
vt1 0.053680 0.564941
vt1 0.101318 0.559326
vt1 0.190063 0.499023
vt1 0.296631 0.476562
vt1 0.412354 0.518555
vt1 0.489990 0.599609
vt1 0.519043 0.715332
vn 0.157480 -0.259843 -0.952756
vn 0.000000 -0.259843 -0.968504
vn 0.000000 -0.543307 -0.842520
vn 0.393701 -0.574803 -0.716535
vn -0.023622 -0.464567 -0.881890
vn 0.196850 -0.259843 -0.944882
vn 0.511811 -0.212599 -0.834646
vn 0.480315 -0.267717 -0.834646
vn 0.692913 -0.267717 -0.669291
vn 0.700787 -0.598425 -0.385827
vn 0.692913 -0.259843 -0.677165
vn 0.850394 -0.212598 -0.472441
vn 0.842520 -0.259843 -0.472441
vn 0.952756 -0.244094 -0.165354
vn 0.952756 -0.267717 -0.149606
vn 0.952756 -0.259842 0.165354
vn 0.771654 -0.582677 0.251969
vn 0.944882 -0.259842 0.188976
vn 0.881890 -0.220472 0.425197
vn 0.834646 -0.259842 0.480315
vn 0.677165 -0.267716 0.685039
vn 0.598425 -0.543307 0.590551
vn 0.669291 -0.251968 0.700787
vn 0.456693 -0.259842 0.850394
vn 0.228346 -0.598425 0.771653
vn 0.236220 -0.236220 0.944882
vn 0.157480 -0.267716 0.952756
vn 0.000000 -0.606299 0.795276
vn 0.000000 -0.236220 0.968504
vn 0.000000 -0.259842 0.968504
vn -0.409449 -0.236220 0.881890
vn -0.149606 -0.598425 0.787401
vn -0.188976 -0.236220 0.952756
vn -0.346457 -0.606299 0.716535
vn -0.188976 -0.259842 0.944882
vn -0.795276 -0.259842 0.543307
vn -0.370079 -0.251968 0.897638
vn -0.685039 -0.259842 0.685039
vn -0.826772 -0.511811 0.228346
vn -0.692913 -0.543307 0.472441
vn -0.897638 -0.275590 0.338583
vn -0.842520 -0.535433 -0.062992
vn -0.968504 -0.251968 0.000000
vn -0.881890 -0.275591 -0.377953
vn -0.677165 -0.606299 -0.417323
vn -0.960630 -0.267716 -0.007874
vn -0.755906 -0.236221 -0.614173
vn -0.897638 -0.220472 -0.370079
vn -0.708661 -0.244095 -0.653543
vn -0.535433 -0.275591 -0.795275
vn -0.503937 -0.228347 -0.834646
vn -0.354331 -0.590551 -0.724409
vn -0.283465 -0.259843 -0.921260
vn -0.173228 -0.425197 -0.889764
vn -0.188976 -0.259843 -0.944882
vn -0.165354 -0.543307 -0.826771
vn 0.574803 -0.811023 0.110236
vn 0.330709 -0.944882 -0.055118
vn 0.307087 -0.944882 0.149606
vn 0.000000 -1.000000 0.000000
vn 0.291339 -0.944882 -0.165354
vn 0.417323 -0.818898 -0.401575
vn 0.173228 -0.944882 -0.291338
vn 0.110236 -0.842520 -0.535433
vn -0.031496 -0.944882 -0.322834
vn -0.244094 -0.944882 -0.228346
vn -0.267717 -0.842520 -0.464567
vn -0.314961 -0.937008 -0.125984
vn -0.551181 -0.834646 -0.007874
vn -0.314961 -0.944882 0.086614
vn -0.228346 -0.952756 0.220473
vn -0.448819 -0.842520 0.307087
vn -0.259843 -0.803149 0.543307
vn -0.031496 -0.944882 0.330709
vn 0.181102 -0.952756 0.259843
vn 0.173228 -0.795275 0.582677
vn 0.385827 -0.834646 0.385827
vn -0.007874 1.000000 -0.007874
vn -0.007874 0.992126 -0.118110
vn -0.362205 0.724409 -0.590551
vn -0.015748 1.000000 -0.000000
vn -0.055118 0.740157 -0.669291
vn 0.000000 1.000000 -0.015748
vn -0.519685 0.748031 -0.409449
vn -0.039370 1.000000 -0.031496
vn 0.181102 0.724409 -0.661417
vn 0.007874 1.000000 -0.070866
vn -0.629921 0.755905 -0.173228
vn -0.023622 1.000000 -0.015748
vn 0.401575 0.748031 -0.527559
vn 0.031496 1.000000 -0.023622
vn -0.614173 0.795275 0.031496
vn -0.055118 1.000000 -0.007874
vn 0.559055 0.748031 -0.362205
vn 0.039370 1.000000 -0.007874
vn -0.606299 0.771653 0.188976
vn -0.039370 1.000000 0.015748
vn 0.685039 0.716535 -0.102362
vn 0.031496 1.000000 -0.007874
vn 0.047244 1.000000 -0.062992
vn 0.078740 1.000000 -0.023622
vn 0.622047 0.763779 0.157480
vn 0.023622 1.000000 0.023622
vn 0.078740 1.000000 0.015748
vn 0.590551 0.732283 0.330709
vn 0.086614 0.992126 0.070866
vn 0.062992 1.000000 0.047244
vn 0.401575 0.748031 0.527559
vn 0.031496 1.000000 0.031496
vn 0.039370 1.000000 0.070866
vn 0.204724 0.740157 0.645669
vn 0.000000 1.000000 0.007874
vn 0.000000 1.000000 0.015748
vn 0.007874 1.000000 0.078740
vn -0.110236 0.708661 0.692913
vn -0.007874 1.000000 -0.031496
vn -0.031496 1.000000 0.039370
vn -0.023622 1.000000 0.055118
vn -0.448819 0.748031 0.488189
vn 0.015748 1.000000 -0.000000
vn -0.062992 1.000000 0.047244
vn -0.078740 1.000000 0.015748
vn -0.086614 1.000000 -0.023622
vn -0.055118 1.000000 -0.055118
vn -0.023622 1.000000 -0.078740
vn 0.015748 1.000000 -0.078740
tan 0.000000 0.952756 -0.259843 1.000000
tan 0.000000 0.968504 -0.259843 1.000000
tan 0.000000 0.842520 -0.543307 1.000000
tan 0.058838 0.751193 -0.570277 1.000000
tan 0.000000 0.881890 -0.464567 1.000000
tan 0.000000 0.944882 -0.259843 1.000000
tan 0.025110 0.888524 -0.210925 1.000000
tan 0.023188 0.876248 -0.267717 1.000000
tan 0.202368 0.961188 -0.174964 1.000000
tan 0.598425 0.734205 -0.051832 1.000000
tan 0.190278 0.965962 -0.175956 1.000000
tan 0.212598 0.883874 -0.015066 1.000000
tan 0.259843 0.879720 -0.020460 1.000000
tan 0.244094 0.952756 -0.000000 1.000000
tan 0.267717 0.952756 -0.000000 1.000000
tan 0.259843 0.952756 -0.000000 1.000000
tan 0.582677 0.771653 -0.000000 1.000000
tan 0.259843 0.944882 -0.000000 1.000000
tan 0.220472 0.898630 0.008680 1.000000
tan 0.259843 0.876248 0.022506 1.000000
tan 0.179180 0.960258 0.198152 1.000000
tan 0.385021 0.837932 0.380743 1.000000
tan 0.158720 0.962366 0.194432 1.000000
tan 0.047058 0.919710 0.255750 1.000000
tan -0.004712 0.769855 0.598425 1.000000
tan 0.000000 0.944882 0.236220 1.000000
tan 0.000000 0.952756 0.267716 1.000000
tan 0.000000 0.795276 0.606299 1.000000
tan 0.000000 0.968504 0.236220 1.000000
tan 0.000000 0.968504 0.259842 1.000000
tan -0.003720 0.888338 0.236220 1.000000
tan -0.018848 0.792113 0.598425 1.000000
tan 0.000000 0.952756 0.236220 1.000000
tan -0.023870 0.730175 0.606299 1.000000
tan -0.006138 0.949346 0.259842 1.000000
tan -0.255751 0.881146 0.047058 1.000000
tan 0.000000 0.897638 0.251968 1.000000
tan -0.194370 0.970922 0.173910 1.000000
tan -0.511811 0.824974 -0.004030 1.000000
tan -0.521917 0.795834 0.149730 1.000000
tan -0.275591 0.902970 0.004340 1.000000
tan -0.535433 0.842024 0.004216 1.000000
tan -0.251969 0.968504 -0.000000 1.000000
tan -0.275591 0.890818 -0.006510 1.000000
tan -0.596751 0.738793 -0.105028 1.000000
tan -0.267717 0.960630 -0.000000 1.000000
tan -0.219480 0.924794 -0.085560 1.000000
tan -0.220472 0.897638 -0.000000 1.000000
tan -0.203732 0.956848 -0.136462 1.000000
tan -0.043400 0.867072 -0.271251 1.000000
tan -0.012586 0.862422 -0.228347 1.000000
tan -0.041850 0.749519 -0.590551 1.000000
tan -0.012276 0.934652 -0.259843 1.000000
tan 0.000000 0.889764 -0.425197 1.000000
tan -0.006138 0.949346 -0.259843 1.000000
tan -0.034224 0.837188 -0.543307 1.000000
tan -0.700973 -0.431521 0.480315 1.000000
tan -0.706801 -0.284270 0.632401 1.000000
tan -0.610081 -0.084010 0.721681 1.000000
tan -0.559055 0.000000 0.834646 1.000000
tan -0.617521 -0.315395 0.714241 1.000000
tan -0.480563 -0.572261 0.667555 1.000000
tan -0.461281 -0.339203 0.825842 1.000000
tan -0.258107 -0.546469 0.806746 1.000000
tan -0.342241 -0.288548 0.877922 1.000000
tan -0.528241 -0.054126 0.788642 1.000000
tan -0.330089 -0.332569 0.793353 1.000000
tan -0.627131 0.117552 0.693533 1.000000
tan -0.716846 0.469031 0.461901 1.000000
tan -0.677041 0.285697 0.654721 1.000000
tan -0.555149 0.311861 0.772707 1.000000
tan -0.583173 0.532147 0.607663 1.000000
tan -0.227664 0.595573 0.771529 1.000000
tan -0.357121 0.319177 0.877922 1.000000
tan -0.457623 0.140120 0.832724 1.000000
tan -0.166966 0.542129 0.789571 1.000000
tan -0.464133 0.127596 0.740157 1.000000
tan 0.984252 0.009238 0.188976 1.000000
tan 0.976502 0.028210 0.171864 1.000000
tan 0.570835 0.659743 0.459173 1.000000
tan 0.984252 0.015500 0.165354 1.000000
tan 0.374915 0.620683 0.655527 1.000000
tan 0.984252 0.002976 0.188976 1.000000
tan 0.739475 0.588877 0.137268 1.000000
tan 0.976378 0.045632 0.228346 1.000000
tan 0.536921 0.368343 0.550437 1.000000
tan 0.976378 0.007378 0.212598 1.000000
tan 0.755906 0.638105 0.035712 1.000000
tan 0.984252 0.026226 0.188976 1.000000
tan 0.777792 -0.308017 0.155310 1.000000
tan 0.984252 -0.026536 0.188976 1.000000
tan 0.795524 0.613181 0.029884 1.000000
tan 0.984252 0.055738 0.188976 1.000000
tan 0.753735 -0.550499 0.026474 1.000000
tan 0.984252 -0.037262 0.188976 1.000000
tan 0.771654 0.603323 0.012152 1.000000
tan 0.984252 0.035650 0.196850 1.000000
tan 0.716535 -0.685039 0.000000 1.000000
tan 0.984252 -0.029512 0.188976 1.000000
tan 0.984252 -0.034100 0.196850 1.000000
tan 0.984252 -0.073036 0.188976 1.000000
tan 0.763780 -0.629487 0.036084 1.000000
tan 0.984252 -0.027714 0.188976 1.000000
tan 0.984252 -0.080476 0.188976 1.000000
tan 0.729121 -0.617149 0.064542 1.000000
tan 0.968690 -0.099634 0.210924 1.000000
tan 0.984252 -0.071300 0.196850 1.000000
tan 0.686341 -0.602393 0.331701 1.000000
tan 0.992126 -0.035216 0.125984 1.000000
tan 0.976378 -0.052390 0.196850 1.000000
tan 0.420981 -0.657077 0.619753 1.000000
tan 0.984252 -0.001488 0.188976 1.000000
tan 0.984252 -0.003100 0.196850 1.000000
tan 0.976378 -0.023188 0.196850 1.000000
tan 0.317193 -0.594953 0.658937 1.000000
tan 0.992126 0.012276 0.141732 1.000000
tan 0.984252 0.024800 0.157480 1.000000
tan 0.984252 0.012834 0.188976 1.000000
tan 0.757518 0.395313 0.090706 1.000000
tan 0.976378 -0.015376 0.204724 1.000000
tan 0.984252 0.052700 0.196850 1.000000
tan 0.984252 0.074524 0.188976 1.000000
tan 0.984252 0.089714 0.188976 1.000000
tan 0.984252 0.065100 0.196850 1.000000
tan 0.976378 0.038564 0.196850 1.000000
tan 0.984252 0.000000 0.196850 1.000000
f 3/3/3 2/2/2 1/1/1
f 4/4/4 3/3/3 1/1/1
f 5/5/5 3/3/3 4/4/4
f 4/4/4 6/6/6 5/5/5
f 6/6/6 4/4/4 7/7/7
f 8/8/8 4/4/4 1/1/1
f 7/7/7 4/4/4 9/9/9
f 4/4/4 8/8/8 10/10/10
f 10/10/10 9/9/9 4/4/4
f 11/11/11 10/10/10 8/8/8
f 12/12/12 9/9/9 10/10/10
f 10/10/10 11/11/11 13/13/13
f 14/14/14 12/12/12 10/10/10
f 10/10/10 13/13/13 15/15/15
f 14/14/14 10/10/10 16/16/16
f 10/10/10 15/15/15 17/17/17
f 17/17/17 16/16/16 10/10/10
f 18/18/18 17/17/17 15/15/15
f 16/16/16 17/17/17 19/19/19
f 20/20/20 17/17/17 18/18/18
f 19/19/19 17/17/17 21/21/21
f 17/17/17 20/20/20 22/22/22
f 23/23/23 22/22/22 20/20/20
f 22/22/22 23/23/23 24/24/24
f 25/25/25 21/21/21 17/17/17
f 25/25/25 17/17/17 22/22/22
f 25/25/25 22/22/22 24/24/24
f 26/26/26 21/21/21 25/25/25
f 25/25/25 24/24/24 27/27/27
f 25/25/25 28/28/28 26/26/26
f 25/25/25 27/27/27 28/28/28
f 29/29/29 26/26/26 28/28/28
f 30/30/30 28/28/28 27/27/27
f 33/33/33 32/32/32 31/31/31
f 34/34/34 31/31/31 32/32/32
f 32/32/32 35/35/35 34/34/34
f 36/36/36 31/31/31 34/34/34
f 37/37/37 34/34/34 35/35/35
f 38/38/38 34/34/34 37/37/37
f 36/36/36 34/34/34 39/39/39
f 34/34/34 38/38/38 40/40/40
f 39/39/39 34/34/34 40/40/40
f 40/40/40 38/38/38 41/41/41
f 42/42/42 40/40/40 41/41/41
f 42/42/42 39/39/39 40/40/40
f 42/42/42 41/41/41 43/43/43
f 44/44/44 42/42/42 43/43/43
f 39/39/39 42/42/42 45/45/45
f 42/42/42 44/44/44 45/45/45
f 45/45/45 46/46/46 39/39/39
f 47/47/47 45/45/45 44/44/44
f 46/46/46 45/45/45 48/48/48
f 48/48/48 45/45/45 49/49/49
f 50/50/50 45/45/45 47/47/47
f 51/51/51 49/49/49 45/45/45
f 52/52/52 45/45/45 50/50/50
f 51/51/51 45/45/45 52/52/52
f 52/52/52 50/50/50 53/53/53
f 51/51/51 52/52/52 54/54/54
f 52/52/52 53/53/53 55/55/55
f 56/56/56 54/54/54 52/52/52
f 56/56/56 52/52/52 55/55/55
f 59/59/59 58/58/58 57/57/57
f 59/59/59 60/60/60 58/58/58
f 58/58/58 60/60/60 61/61/61
f 61/61/61 63/63/63 62/62/62
f 61/61/61 60/60/60 63/63/63
f 65/65/65 64/64/64 63/63/63
f 63/63/63 60/60/60 65/65/65
f 67/67/67 65/65/65 66/66/66
f 65/65/65 60/60/60 66/66/66
f 66/66/66 60/60/60 68/68/68
f 70/70/70 69/69/69 68/68/68
f 68/68/68 60/60/60 70/70/70
f 70/70/70 60/60/60 71/71/71
f 71/71/71 72/72/72 70/70/70
f 71/71/71 73/73/73 72/72/72
f 74/74/74 73/73/73 71/71/71
f 71/71/71 60/60/60 74/74/74
f 74/74/74 60/60/60 75/75/75
f 75/75/75 60/60/60 59/59/59
f 75/75/75 76/76/76 74/74/74
f 77/77/77 75/75/75 59/59/59
f 77/77/77 76/76/76 75/75/75
f 80/80/80 79/79/79 78/78/78
f 80/80/80 78/78/78 81/81/81
f 82/82/82 79/79/79 80/80/80
f 79/79/79 82/82/82 83/83/83
f 80/80/80 81/81/81 84/84/84
f 84/84/84 81/81/81 85/85/85
f 86/86/86 83/83/83 82/82/82
f 83/83/83 86/86/86 87/87/87
f 84/84/84 85/85/85 88/88/88
f 89/89/89 88/88/88 85/85/85
f 87/87/87 86/86/86 90/90/90
f 90/90/90 91/91/91 87/87/87
f 92/92/92 88/88/88 89/89/89
f 93/93/93 92/92/92 89/89/89
f 94/94/94 91/91/91 90/90/90
f 95/95/95 91/91/91 94/94/94
f 96/96/96 92/92/92 93/93/93
f 96/96/96 88/88/88 92/92/92
f 93/93/93 97/97/97 96/96/96
f 95/95/95 94/94/94 98/98/98
f 98/98/98 99/99/99 95/95/95
f 100/100/100 94/94/94 90/90/90
f 100/100/100 90/90/90 86/86/86
f 94/94/94 101/101/101 98/98/98
f 94/94/94 100/100/100 101/101/101
f 99/99/99 98/98/98 102/102/102
f 102/102/102 103/103/103 99/99/99
f 101/101/101 104/104/104 98/98/98
f 102/102/102 98/98/98 104/104/104
f 103/103/103 102/102/102 105/105/105
f 105/105/105 106/106/106 103/103/103
f 104/104/104 107/107/107 102/102/102
f 107/107/107 105/105/105 102/102/102
f 105/105/105 108/108/108 106/106/106
f 105/105/105 107/107/107 108/108/108
f 108/108/108 109/109/109 106/106/106
f 110/110/110 108/108/108 107/107/107
f 109/109/109 108/108/108 111/111/111
f 108/108/108 110/110/110 111/111/111
f 111/111/111 112/112/112 109/109/109
f 112/112/112 111/111/111 113/113/113
f 111/111/111 110/110/110 114/114/114
f 115/115/115 113/113/113 111/111/111
f 111/111/111 114/114/114 115/115/115
f 116/116/116 113/113/113 115/115/115
f 116/116/116 115/115/115 117/117/117
f 118/118/118 115/115/115 114/114/114
f 119/119/119 117/117/117 115/115/115
f 115/115/115 118/118/118 119/119/119
f 119/119/119 120/120/120 117/117/117
f 119/119/119 97/97/97 120/120/120
f 96/96/96 97/97/97 119/119/119
f 118/118/118 114/114/114 121/121/121
f 121/121/121 119/119/119 118/118/118
f 114/114/114 110/110/110 121/121/121
f 121/121/121 96/96/96 119/119/119
f 110/110/110 107/107/107 121/121/121
f 104/104/104 121/121/121 107/107/107
f 104/104/104 101/101/101 121/121/121
f 101/101/101 100/100/100 121/121/121
f 122/122/122 96/96/96 121/121/121
f 96/96/96 122/122/122 123/123/123
f 122/122/122 121/121/121 123/123/123
f 123/123/123 88/88/88 96/96/96
f 123/123/123 84/84/84 88/88/88
f 123/123/123 124/124/124 84/84/84
f 124/124/124 123/123/123 121/121/121
f 84/84/84 124/124/124 80/80/80
f 125/125/125 80/80/80 124/124/124
f 125/125/125 124/124/124 121/121/121
f 125/125/125 82/82/82 80/80/80
f 121/121/121 126/126/126 125/125/125
f 125/125/125 126/126/126 82/82/82
f 100/100/100 126/126/126 121/121/121
f 82/82/82 126/126/126 86/86/86
f 86/86/86 126/126/126 100/100/100
