mtllib SM_Shaker_Pepper_LOD2.mtl
g SM_Shaker_Pepper_LOD2
#Vertices 126
#Indices 372
#Section 0 Offset 0 NumIndices 159 MaterialIndex 1 MI_Glass_2
#Section 1 Offset 159 NumIndices 213 MaterialIndex 0 MI_Props
v 0.018954 0.067203 -0.011565
v 0.002717 0.067103 -0.022815
v 0.020464 0.064576 -0.002535
v -0.021024 0.064734 -0.000109
v -0.012996 0.064144 0.017698
v -0.020125 0.060440 0.000049
v 0.013915 0.066509 0.020120
v 0.005259 0.061087 0.019910
v 0.020462 0.062054 0.006795
v 0.020464 0.064576 -0.002535
v 0.002717 0.067103 -0.022815
v 0.007389 0.060939 -0.018890
v -0.012086 0.063522 -0.017047
v -0.021024 0.064734 -0.000109
v -0.020125 0.060440 0.000049
v -0.024000 0.005252 -0.000000
v -0.015426 -0.000364 0.013473
v -0.020898 -0.001005 -0.000643
v -0.010692 0.005509 0.023748
v 0.000752 -0.001355 0.019315
v 0.015344 -0.001557 0.014672
v -0.017851 0.052736 0.017623
v -0.024000 0.053170 -0.000000
v -0.020125 0.060440 0.000049
v -0.012996 0.064144 0.017698
v 0.005259 0.061087 0.019910
v 0.005475 0.053092 0.024867
v 0.020462 0.062054 0.006795
v 0.016973 0.005836 0.017425
v 0.023547 0.053383 0.007621
v 0.024284 0.005420 -0.006340
v 0.020373 -0.001134 -0.000344
v 0.013899 -0.000409 -0.015143
v 0.018580 0.053530 -0.017188
v 0.007389 0.060939 -0.018890
v 0.020464 0.064576 -0.002535
v 0.006927 0.005161 -0.023309
v -0.001462 -0.001311 -0.020357
v -0.011652 0.052899 -0.023344
v -0.012086 0.063522 -0.017047
v -0.017823 0.004834 -0.017879
v -0.013702 -0.000423 -0.013947
v -0.020898 -0.001005 -0.000643
v -0.024000 0.005252 -0.000000
v -0.024000 0.053170 -0.000000
v -0.020125 0.060440 0.000049
v 0.013899 -0.000409 -0.015143
v -0.001462 -0.001311 -0.020357
v 0.020373 -0.001134 -0.000344
v 0.015344 -0.001557 0.014672
v 0.000752 -0.001355 0.019315
v -0.020898 -0.001005 -0.000643
v -0.015426 -0.000364 0.013473
v -0.013702 -0.000423 -0.013947
v 0.004730 0.076476 -0.022359
v -0.021276 0.076642 -0.003888
v -0.010655 0.076228 -0.018391
v 0.021511 0.076684 -0.003681
v 0.005937 0.076633 0.020957
v 0.021758 0.074695 0.007601
v -0.015076 0.076087 0.017987
v 0.021784 0.053705 -0.004935
v -0.010664 0.053170 -0.018471
v 0.005138 0.052774 -0.021046
v -0.020910 0.053905 -0.006502
v -0.000000 0.053170 0.021329
v -0.016018 0.052957 0.015163
v 0.015163 0.052957 0.016018
v 0.020455 0.001592 -0.006794
v 0.006342 0.001885 0.020201
v 0.016718 0.001436 0.009652
v -0.015569 0.001569 0.015419
v -0.020064 0.001574 -0.006576
v -0.009652 0.001436 -0.016718
v 0.006180 0.001917 -0.020161
v -0.011089 0.004293 -0.019806
v -0.009652 0.001436 -0.016718
v 0.006180 0.001917 -0.020161
v -0.010664 0.053170 -0.018471
v 0.005138 0.052774 -0.021046
v 0.014883 0.005147 -0.016204
v 0.020455 0.001592 -0.006794
v 0.021784 0.053705 -0.004935
v 0.021329 0.005252 -0.000000
v 0.016718 0.001436 0.009652
v 0.016173 0.005033 0.015267
v 0.015163 0.052957 0.016018
v 0.006342 0.001885 0.020201
v -0.000000 0.005252 0.021329
v -0.000000 0.053170 0.021329
v -0.015569 0.001569 0.015419
v -0.015267 0.005033 0.016173
v -0.016018 0.052957 0.015163
v -0.021936 0.005199 -0.003447
v -0.020064 0.001574 -0.006576
v -0.020910 0.053905 -0.006502
v -0.011089 0.004293 -0.019806
v -0.009652 0.001436 -0.016718
v -0.010664 0.053170 -0.018471
v -0.010442 0.073640 0.018019
v 0.013915 0.066509 0.020120
v -0.012996 0.064144 0.017698
v 0.018954 0.067203 -0.011565
v 0.020464 0.064576 -0.002535
v 0.006123 0.073950 0.021565
v -0.015076 0.076087 0.017987
v 0.005937 0.076633 0.020957
v 0.021758 0.074695 0.007601
v 0.014688 0.072170 -0.016046
v 0.002717 0.067103 -0.022815
v 0.021511 0.076684 -0.003681
v 0.000026 0.071760 -0.021055
v 0.004730 0.076476 -0.022359
v 0.004730 0.076476 -0.022359
v -0.010655 0.076228 -0.018391
v -0.016022 0.072354 -0.015183
v 0.000026 0.071760 -0.021055
v -0.021276 0.076642 -0.003888
v 0.002717 0.067103 -0.022815
v -0.021550 0.073042 0.004624
v -0.015076 0.076087 0.017987
v -0.010442 0.073640 0.018019
v -0.023563 0.069426 -0.004051
v -0.012086 0.063522 -0.017047
v -0.012996 0.064144 0.017698
v -0.021024 0.064734 -0.000109
vt 0.948730 0.058105
vt 0.963379 0.062012
vt 0.941406 0.060059
vt 0.891602 0.061523
vt 0.905273 0.062988
vt 0.891602 0.064453
vt 0.922852 0.061035
vt 0.918457 0.064453
vt 0.934082 0.062988
vt 0.941406 0.061035
vt 0.962402 0.060547
vt 0.958496 0.064453
vt 0.973145 0.063477
vt 0.986328 0.061523
vt 0.986816 0.063965
vt 0.890625 0.103027
vt 0.901855 0.106934
vt 0.891113 0.107910
vt 0.908203 0.102539
vt 0.915527 0.108398
vt 0.927246 0.108398
vt 0.902832 0.071777
vt 0.890625 0.071289
vt 0.892090 0.065430
vt 0.904785 0.063477
vt 0.918457 0.065430
vt 0.917969 0.071289
vt 0.935059 0.064453
vt 0.926758 0.102539
vt 0.934082 0.070801
vt 0.943359 0.103027
vt 0.939453 0.108398
vt 0.953125 0.107422
vt 0.951172 0.070801
vt 0.958008 0.065430
vt 0.941895 0.062500
vt 0.959473 0.102539
vt 0.965332 0.107422
vt 0.970703 0.071289
vt 0.973145 0.063965
vt 0.975586 0.102539
vt 0.975586 0.107910
vt 0.986328 0.107422
vt 0.987793 0.103027
vt 0.987793 0.070801
vt 0.986328 0.064941
vt 0.890625 0.129883
vt 0.889648 0.118652
vt 0.898926 0.136719
vt 0.909668 0.135742
vt 0.915527 0.126953
vt 0.906250 0.109375
vt 0.914062 0.115234
vt 0.895996 0.111816
vt 0.871582 0.618408
vt 0.881348 0.713379
vt 0.859375 0.664307
vt 0.945312 0.602295
vt 0.986328 0.679443
vt 0.975098 0.618164
vt 0.947266 0.729736
vt 0.981445 0.489258
vt 0.927246 0.481934
vt 0.950195 0.471680
vt 0.916992 0.503906
vt 0.959473 0.537109
vt 0.933105 0.534180
vt 0.979980 0.523193
vt 0.856934 0.500244
vt 0.888672 0.534912
vt 0.869141 0.523193
vt 0.919434 0.519043
vt 0.917480 0.484375
vt 0.897949 0.473633
vt 0.873047 0.474609
vt 0.986328 0.539307
vt 0.985840 0.545166
vt 0.969727 0.542725
vt 0.987305 0.462891
vt 0.971680 0.462891
vt 0.960938 0.537109
vt 0.950684 0.542725
vt 0.948730 0.461426
vt 0.943848 0.536865
vt 0.933105 0.543701
vt 0.928223 0.536865
vt 0.927246 0.462402
vt 0.917969 0.542236
vt 0.912109 0.536621
vt 0.911621 0.461914
vt 0.895996 0.542725
vt 0.896484 0.537109
vt 0.895020 0.462891
vt 0.876953 0.537354
vt 0.873535 0.542969
vt 0.873047 0.461914
vt 0.857910 0.539551
vt 0.859375 0.545166
vt 0.857910 0.463379
vt 0.726074 0.566406
vt 0.796387 0.585449
vt 0.718262 0.595947
vt 0.885742 0.588135
vt 0.858398 0.594971
vt 0.775391 0.566162
vt 0.714355 0.556885
vt 0.775879 0.559814
vt 0.832520 0.564941
vt 0.901855 0.572266
vt 0.943848 0.587891
vt 0.861816 0.557129
vt 0.947754 0.572510
vt 0.933105 0.555664
vt 0.874023 0.649658
vt 0.832031 0.647949
vt 0.817383 0.635986
vt 0.862305 0.634766
vt 0.785645 0.650391
vt 0.871582 0.620850
vt 0.763184 0.639404
vt 0.724609 0.648682
vt 0.714355 0.639648
vt 0.785156 0.628174
vt 0.827637 0.617432
vt 0.718750 0.608643
vt 0.775391 0.614746
vt1 0.193115 0.817627
vt1 0.220703 0.824951
vt1 0.179443 0.820557
vt1 0.085327 0.823975
vt1 0.111084 0.826538
vt1 0.085510 0.828979
vt1 0.144287 0.822632
vt1 0.135620 0.828979
vt1 0.165405 0.826782
vt1 0.179443 0.822754
vt1 0.219116 0.821899
vt1 0.211426 0.829102
vt1 0.239136 0.826904
vt1 0.264648 0.823486
vt1 0.265137 0.828125
vt1 0.083557 0.901611
vt1 0.104980 0.909424
vt1 0.084534 0.911011
vt1 0.116760 0.900574
vt1 0.130005 0.911499
vt1 0.152222 0.911560
vt1 0.106323 0.842773
vt1 0.083313 0.841675
vt1 0.085876 0.830688
vt1 0.110535 0.827759
vt1 0.135742 0.830688
vt1 0.135010 0.842041
vt1 0.167114 0.829590
vt1 0.151489 0.900635
vt1 0.165771 0.840942
vt1 0.183105 0.901672
vt1 0.176025 0.911865
vt1 0.201172 0.910156
vt1 0.197754 0.841064
vt1 0.210693 0.831177
vt1 0.179932 0.825317
vt1 0.213379 0.901123
vt1 0.224243 0.909485
vt1 0.234985 0.842407
vt1 0.239014 0.828491
vt1 0.244141 0.901062
vt1 0.243652 0.910706
vt1 0.264404 0.910217
vt1 0.267090 0.901245
vt1 0.267090 0.841309
vt1 0.264404 0.830322
vt1 0.083130 0.239258
vt1 0.081543 0.218750
vt1 0.099121 0.252441
vt1 0.119263 0.250488
vt1 0.130005 0.234375
vt1 0.112488 0.201172
vt1 0.127930 0.212402
vt1 0.093567 0.205566
vt1 0.420654 0.538086
vt1 0.424561 0.578857
vt1 0.415283 0.557617
vt1 0.452148 0.531250
vt1 0.469727 0.564209
vt1 0.464844 0.538086
vt1 0.453125 0.585693
vt1 0.135132 0.543701
vt1 0.090393 0.537598
vt1 0.109131 0.529297
vt1 0.081665 0.555908
vt1 0.116821 0.583496
vt1 0.094910 0.581055
vt1 0.133789 0.571777
vt1 0.746094 0.557861
vt1 0.772461 0.586670
vt1 0.756348 0.577148
vt1 0.798340 0.573486
vt1 0.796387 0.544678
vt1 0.780273 0.535645
vt1 0.759277 0.536621
vt1 0.752441 0.911987
vt1 0.751953 0.916687
vt1 0.730469 0.914734
vt1 0.753418 0.848999
vt1 0.732910 0.849243
vt1 0.718750 0.910217
vt1 0.705078 0.914795
vt1 0.702637 0.847778
vt1 0.696289 0.909912
vt1 0.682129 0.915527
vt1 0.675781 0.910034
vt1 0.674805 0.848755
vt1 0.662598 0.914307
vt1 0.654297 0.909790
vt1 0.653809 0.848511
vt1 0.633301 0.914795
vt1 0.633789 0.910156
vt1 0.631836 0.848999
vt1 0.608398 0.910278
vt1 0.604004 0.915039
vt1 0.603516 0.848267
vt1 0.583496 0.912231
vt1 0.585449 0.916687
vt1 0.583008 0.849609
vt1 0.418213 0.234863
vt1 0.449219 0.243164
vt1 0.414795 0.248047
vt1 0.488770 0.244629
vt1 0.476562 0.247559
vt1 0.439941 0.234863
vt1 0.413086 0.230469
vt1 0.440186 0.231934
vt1 0.465332 0.234375
vt1 0.495850 0.237305
vt1 0.514160 0.244141
vt1 0.478271 0.230957
vt1 0.516113 0.237793
vt1 0.509766 0.229980
vt1 0.826660 0.249512
vt1 0.806641 0.248535
vt1 0.799805 0.243164
vt1 0.820801 0.242676
vt1 0.784668 0.249512
vt1 0.825195 0.235840
vt1 0.774414 0.244629
vt1 0.755859 0.249023
vt1 0.750977 0.244629
vt1 0.784668 0.239258
vt1 0.804688 0.234375
vt1 0.753418 0.230469
vt1 0.779785 0.232910
vn 0.787402 0.393701 -0.480315
vn 0.118110 -0.661417 -0.740157
vn 0.842520 -0.527559 -0.062992
vn -1.000000 -0.000000 -0.023622
vn -0.566929 0.000000 0.826772
vn -1.000000 -0.000000 -0.015748
vn 0.590551 0.000000 0.811023
vn 0.251969 0.000000 0.968504
vn 0.944882 0.000000 0.322835
vn 0.992126 -0.000000 -0.133858
vn 0.149606 -0.000000 -0.992126
vn 0.362205 -0.000000 -0.929134
vn -0.590551 -0.000000 -0.803149
vn -1.000000 0.000000 0.023622
vn -1.000000 0.000000 0.023622
vn -1.000000 -0.031496 0.000000
vn -0.354331 -0.881890 0.307087
vn -0.448819 -0.889764 -0.015748
vn -0.401575 -0.047244 0.913386
vn 0.015748 -0.929134 0.377953
vn 0.314961 -0.905512 0.299213
vn -0.708661 0.055118 0.700787
vn -1.000000 0.023622 -0.000000
vn -0.755906 0.653543 0.007874
vn -0.472441 0.629921 0.614173
vn 0.196850 0.669291 0.716535
vn 0.212598 0.023622 0.976378
vn 0.708661 0.669291 0.204724
vn 0.692913 -0.031496 0.716535
vn 0.952756 0.023622 0.307087
vn 0.968504 -0.031496 -0.251968
vn 0.425197 -0.905512 -0.015748
vn 0.330709 -0.889764 -0.322834
vn 0.732283 0.023622 -0.677165
vn 0.291339 0.653543 -0.692913
vn 0.795276 0.590551 -0.133858
vn 0.283465 -0.031496 -0.960630
vn -0.023622 -0.889764 -0.456693
vn -0.440945 0.023622 -0.897638
vn -0.393701 0.724409 -0.566929
vn -0.700787 -0.039370 -0.708661
vn -0.275591 -0.921260 -0.283464
vn -0.464567 -0.881890 0.023622
vn -1.000000 -0.031496 0.000000
vn -1.000000 0.023622 -0.000000
vn -0.779528 0.629921 -0.015748
vn 0.000000 -1.000000 0.000000
vn 0.000000 -1.000000 0.000000
vn 0.000000 -1.000000 0.000000
vn 0.000000 -1.000000 0.000000
vn 0.000000 -1.000000 0.000000
vn 0.000000 -1.000000 0.000000
vn 0.000000 -1.000000 0.000000
vn 0.000000 -1.000000 0.000000
vn 0.007874 1.000000 -0.023622
vn -0.023622 1.000000 -0.000000
vn -0.007874 1.000000 -0.015748
vn 0.023622 1.000000 -0.000000
vn 0.007874 1.000000 0.015748
vn 0.023622 1.000000 0.007874
vn -0.015748 1.000000 0.015748
vn 0.598425 0.787401 -0.133858
vn -0.299213 0.803149 -0.519685
vn 0.141732 0.795275 -0.590551
vn -0.582677 0.795275 -0.181102
vn 0.000000 0.803150 0.598425
vn -0.440945 0.787401 0.417323
vn 0.417323 0.787401 0.440945
vn 0.070866 -1.000000 -0.023622
vn 0.023622 -1.000000 0.070866
vn 0.055118 -1.000000 0.031496
vn -0.055118 -1.000000 0.055118
vn -0.070866 -1.000000 -0.023622
vn -0.031496 -1.000000 -0.055118
vn 0.023622 -1.000000 -0.070866
vn -0.393701 -0.055118 -0.921260
vn -0.031496 -1.000000 -0.055118
vn 0.015748 -0.944882 -0.322834
vn -0.299213 0.803149 -0.519685
vn 0.165354 0.795275 -0.582677
vn 0.677165 -0.039370 -0.732283
vn 0.267717 -0.960630 0.000000
vn 0.606299 0.787401 -0.125984
vn 1.000000 -0.039370 0.000000
vn 0.055118 -1.000000 0.031496
vn 0.740157 -0.039370 0.669291
vn 0.417323 0.787401 0.456693
vn 0.015748 -0.952756 0.314961
vn 0.000000 -0.039370 1.000000
vn 0.000000 0.803150 0.598425
vn -0.188976 -0.960630 0.204724
vn -0.669291 -0.039370 0.740157
vn -0.456693 0.787401 0.417323
vn -0.984252 -0.039370 -0.157480
vn -0.259843 -0.968504 -0.015748
vn -0.590551 0.795275 -0.157480
vn -0.472441 -0.062992 -0.881890
vn -0.031496 -1.000000 -0.055118
vn -0.299213 0.803149 -0.519685
vn -0.503937 -0.070866 0.858268
vn 0.614173 0.078740 0.787401
vn -0.496063 -0.125984 0.858268
vn 0.811024 0.330709 -0.488189
vn 0.976378 -0.204724 -0.055118
vn 0.259843 -0.330709 0.905512
vn -0.543307 0.598425 0.590551
vn 0.188976 0.606299 0.771653
vn 0.944882 -0.062992 0.314961
vn 0.661417 -0.204724 -0.724409
vn 0.110236 0.330709 -0.937008
vn 0.795276 0.590551 -0.141732
vn -0.007874 -0.220473 -0.976378
vn 0.149606 0.535433 -0.826772
vn 0.181102 0.401575 -0.897638
vn -0.385827 0.480315 -0.787401
vn -0.708661 -0.188976 -0.677165
vn 0.000000 -0.220473 -0.976378
vn -0.763780 0.629921 -0.118110
vn 0.110236 0.425197 -0.897638
vn -0.929134 -0.322835 0.204724
vn -0.503937 0.661417 0.559055
vn -0.496063 -0.133858 0.858268
vn -0.944882 0.299213 -0.141732
vn -0.614173 -0.181102 -0.771653
vn -0.590551 -0.125984 0.803149
vn -0.976378 -0.196850 0.023622
tan -0.130944 0.670345 0.334801 1.000000
tan -0.068324 0.723169 -0.657139 1.000000
tan 0.529047 0.841528 0.028210 1.000000
tan 0.002232 0.992126 -0.094488 1.000000
tan -0.097650 0.876248 -0.066960 1.000000
tan 0.001488 0.992126 -0.094488 1.000000
tan 0.708847 0.455825 -0.516151 1.000000
tan 0.061008 0.968504 -0.015872 1.000000
tan 0.022878 0.944882 -0.066960 1.000000
tan 0.009486 0.992126 0.070308 1.000000
tan 0.117180 0.984314 0.017670 1.000000
tan 0.080476 0.924670 0.031372 1.000000
tan -0.132804 0.906380 0.097650 1.000000
tan 0.001860 1.000000 0.078740 1.000000
tan 0.001860 1.000000 0.078740 1.000000
tan -0.031496 1.000000 0.055118 1.000000
tan -0.722177 0.466675 0.506913 1.000000
tan -0.883006 0.443301 0.119164 1.000000
tan 0.025792 0.938682 0.059892 1.000000
tan 0.007316 0.378077 0.929134 1.000000
tan 0.655961 0.433133 0.620311 1.000000
tan 0.017546 0.977618 -0.059148 1.000000
tan 0.023622 1.000000 -0.055118 1.000000
tan 0.647715 0.750325 -0.096348 1.000000
tan 0.257673 0.751813 -0.572881 1.000000
tan -0.009796 0.722735 -0.672391 1.000000
tan 0.030752 0.976378 -0.030318 1.000000
tan -0.660797 0.722425 -0.074400 1.000000
tan -0.036084 0.994668 0.078616 1.000000
tan -0.018786 0.952756 -0.015004 1.000000
tan 0.027528 0.970488 -0.015500 1.000000
tan 0.905512 0.424825 0.021390 1.000000
tan 0.525451 0.454585 -0.714613 1.000000
tan 0.028458 0.978672 0.064914 1.000000
tan -0.046004 0.715853 0.655837 1.000000
tan -0.590551 0.788951 -0.027900 1.000000
tan -0.030008 0.962862 -0.040424 1.000000
tan 0.021018 0.456135 -0.889764 1.000000
tan 0.002232 0.932234 0.023436 1.000000
tan 0.148304 0.634137 0.707297 1.000000
tan -0.007130 0.998512 -0.048422 1.000000
tan -0.660115 0.396119 -0.645607 1.000000
tan -0.875318 0.457561 -0.132308 1.000000
tan -0.031496 1.000000 -0.055118 1.000000
tan 0.023622 1.000000 0.055118 1.000000
tan 0.623597 0.773885 0.087358 1.000000
tan -0.968504 -0.000000 -0.259842 1.000000
tan -0.968504 -0.000000 -0.259842 1.000000
tan -0.968504 -0.000000 -0.259842 1.000000
tan -0.968504 -0.000000 -0.259842 1.000000
tan -0.968504 -0.000000 -0.259842 1.000000
tan -0.968504 -0.000000 -0.259842 1.000000
tan -0.968504 -0.000000 -0.259842 1.000000
tan -0.968504 -0.000000 -0.259842 1.000000
tan 0.866142 -0.018538 -0.496063 1.000000
tan 0.866142 0.020460 -0.496063 1.000000
tan 0.866142 -0.000992 -0.496063 1.000000
tan 0.866142 -0.020460 -0.496063 1.000000
tan 0.866142 0.000992 -0.496063 1.000000
tan 0.866142 -0.016554 -0.496063 1.000000
tan 0.866142 0.021452 -0.496063 1.000000
tan 0.528613 -0.512121 -0.649265 1.000000
tan 0.113460 -0.499721 -0.837621 1.000000
tan 0.104842 -0.603757 -0.787897 1.000000
tan 0.510137 0.207514 -0.730051 1.000000
tan 0.116808 0.593713 -0.796826 1.000000
tan 0.355199 0.576539 -0.712505 1.000000
tan 0.079608 0.421043 -0.827206 1.000000
tan -0.259843 0.004464 -0.968504 1.000000
tan -0.259843 -0.074772 -0.968504 1.000000
tan -0.259843 -0.044826 -0.968504 1.000000
tan -0.259843 -0.039060 -0.968504 1.000000
tan -0.259843 0.041292 -0.968504 1.000000
tan -0.259843 0.061566 -0.968504 1.000000
tan -0.251969 0.062682 -0.968504 1.000000
tan 0.026412 0.939860 -0.067518 1.000000
tan -0.244094 0.061070 -0.968504 1.000000
tan 0.245520 0.316758 -0.915122 1.000000
tan 0.209436 0.582305 0.779341 1.000000
tan -0.087668 0.596317 0.789013 1.000000
tan 0.051770 0.988468 -0.005270 1.000000
tan 0.915246 0.255068 -0.287433 1.000000
tan -0.781202 0.615413 0.086800 1.000000
tan 0.039370 1.000000 0.007874 1.000000
tan 0.866142 0.063612 0.503937 1.000000
tan 0.027900 0.987228 0.027218 1.000000
tan -0.477401 0.616219 -0.626201 1.000000
tan 0.262571 0.306901 0.915246 1.000000
tan 0.000000 1.000000 0.039370 1.000000
tan 0.000000 0.598425 -0.803150 1.000000
tan -0.650505 0.277885 0.703453 1.000000
tan 0.001922 0.981400 0.053940 1.000000
tan 0.626201 0.616219 -0.477401 1.000000
tan -0.043090 0.984252 0.023250 1.000000
tan -0.930374 0.253828 -0.259285 1.000000
tan 0.789014 0.608221 0.112716 1.000000
tan -0.086304 0.897266 -0.017856 1.000000
tan -0.724409 0.061008 -0.692913 1.000000
tan 0.460909 0.596317 0.656209 1.000000
tan -0.064728 0.886044 0.035154 1.000000
tan 0.007440 0.933970 -0.099200 1.000000
tan -0.082088 0.855416 0.078120 1.000000
tan -0.312729 0.858454 0.062000 1.000000
tan 0.205158 0.976812 0.006076 1.000000
tan -0.004526 0.907558 0.332755 1.000000
tan 0.047864 0.670717 -0.635625 1.000000
tan -0.009548 0.774629 -0.606299 1.000000
tan 0.062992 0.947362 0.000496 1.000000
tan 0.089156 0.967698 -0.192076 1.000000
tan -0.051646 0.937008 0.324632 1.000000
tan -0.590551 0.789695 -0.023250 1.000000
tan 0.030752 0.976378 -0.220721 1.000000
tan -0.017608 0.824416 0.530721 1.000000
tan -0.025854 -0.901916 -0.408705 1.000000
tan -0.065348 -0.823734 -0.470457 1.000000
tan 0.123628 -0.974146 0.142476 1.000000
tan 0.053816 -0.976378 0.220473 1.000000
tan -0.629921 -0.760989 0.014880 1.000000
tan -0.028644 -0.899374 -0.429537 1.000000
tan 0.322835 -0.930746 -0.002542 1.000000
tan -0.530411 -0.739723 0.397049 1.000000
tan 0.009486 -0.893422 -0.133858 1.000000
tan -0.298097 -0.948230 -0.014508 1.000000
tan 0.071052 -0.856222 0.144398 1.000000
tan 0.515841 -0.666253 0.274785 1.000000
tan 0.197780 -0.976378 0.038440 1.000000
f 3/3/3 2/2/2 1/1/1
f 6/6/6 5/5/5 4/4/4
f 5/5/5 8/8/8 7/7/7
f 8/8/8 9/9/9 7/7/7
f 9/9/9 10/10/10 7/7/7
f 12/12/12 11/11/11 10/10/10
f 12/12/12 13/13/13 11/11/11
f 15/15/15 14/14/14 13/13/13
f 18/18/18 17/17/17 16/16/16
f 17/17/17 19/19/19 16/16/16
f 20/20/20 19/19/19 17/17/17
f 19/19/19 20/20/20 21/21/21
f 19/19/19 22/22/22 16/16/16
f 23/23/23 16/16/16 22/22/22
f 24/24/24 23/23/23 22/22/22
f 22/22/22 25/25/25 24/24/24
f 22/22/22 26/26/26 25/25/25
f 27/27/27 26/26/26 22/22/22
f 22/22/22 19/19/19 27/27/27
f 26/26/26 27/27/27 28/28/28
f 29/29/29 27/27/27 19/19/19
f 29/29/29 19/19/19 21/21/21
f 30/30/30 28/28/28 27/27/27
f 27/27/27 29/29/29 30/30/30
f 29/29/29 21/21/21 31/31/31
f 31/31/31 30/30/30 29/29/29
f 32/32/32 31/31/31 21/21/21
f 32/32/32 33/33/33 31/31/31
f 34/34/34 28/28/28 30/30/30
f 30/30/30 31/31/31 34/34/34
f 36/36/36 28/28/28 35/35/35
f 28/28/28 34/34/34 35/35/35
f 33/33/33 37/37/37 31/31/31
f 37/37/37 34/34/34 31/31/31
f 38/38/38 37/37/37 33/33/33
f 34/34/34 39/39/39 35/35/35
f 34/34/34 37/37/37 39/39/39
f 39/39/39 40/40/40 35/35/35
f 38/38/38 41/41/41 37/37/37
f 41/41/41 39/39/39 37/37/37
f 38/38/38 42/42/42 41/41/41
f 41/41/41 42/42/42 43/43/43
f 43/43/43 44/44/44 41/41/41
f 44/44/44 45/45/45 41/41/41
f 39/39/39 41/41/41 45/45/45
f 39/39/39 45/45/45 40/40/40
f 45/45/45 46/46/46 40/40/40
f 49/49/49 48/48/48 47/47/47
f 51/51/51 49/49/49 50/50/50
f 49/49/49 51/51/51 48/48/48
f 52/52/52 48/48/48 51/51/51
f 52/52/52 51/51/51 53/53/53
f 54/54/54 48/48/48 52/52/52
f 57/57/57 56/56/56 55/55/55
f 55/55/55 56/56/56 58/58/58
f 58/58/58 56/56/56 59/59/59
f 60/60/60 58/58/58 59/59/59
f 59/59/59 56/56/56 61/61/61
f 64/64/64 63/63/63 62/62/62
f 65/65/65 62/62/62 63/63/63
f 66/66/66 62/62/62 65/65/65
f 67/67/67 66/66/66 65/65/65
f 66/66/66 68/68/68 62/62/62
f 71/71/71 70/70/70 69/69/69
f 72/72/72 69/69/69 70/70/70
f 73/73/73 69/69/69 72/72/72
f 73/73/73 74/74/74 69/69/69
f 75/75/75 69/69/69 74/74/74
f 78/78/78 77/77/77 76/76/76
f 80/80/80 76/76/76 79/79/79
f 81/81/81 78/78/78 76/76/76
f 76/76/76 80/80/80 81/81/81
f 78/78/78 81/81/81 82/82/82
f 83/83/83 81/81/81 80/80/80
f 82/82/82 81/81/81 84/84/84
f 81/81/81 83/83/83 84/84/84
f 82/82/82 84/84/84 85/85/85
f 84/84/84 83/83/83 86/86/86
f 86/86/86 85/85/85 84/84/84
f 87/87/87 86/86/86 83/83/83
f 88/88/88 85/85/85 86/86/86
f 86/86/86 87/87/87 89/89/89
f 86/86/86 89/89/89 88/88/88
f 90/90/90 89/89/89 87/87/87
f 88/88/88 89/89/89 91/91/91
f 89/89/89 90/90/90 92/92/92
f 92/92/92 91/91/91 89/89/89
f 93/93/93 92/92/92 90/90/90
f 92/92/92 94/94/94 91/91/91
f 92/92/92 93/93/93 94/94/94
f 95/95/95 91/91/91 94/94/94
f 96/96/96 94/94/94 93/93/93
f 97/97/97 95/95/95 94/94/94
f 94/94/94 96/96/96 97/97/97
f 98/98/98 95/95/95 97/97/97
f 99/99/99 97/97/97 96/96/96
f 102/102/102 101/101/101 100/100/100
f 101/101/101 104/104/104 103/103/103
f 101/101/101 105/105/105 100/100/100
f 100/100/100 105/105/105 106/106/106
f 105/105/105 107/107/107 106/106/106
f 107/107/107 105/105/105 108/108/108
f 101/101/101 108/108/108 105/105/105
f 103/103/103 109/109/109 101/101/101
f 108/108/108 101/101/101 109/109/109
f 109/109/109 103/103/103 110/110/110
f 109/109/109 111/111/111 108/108/108
f 110/110/110 112/112/112 109/109/109
f 111/111/111 109/109/109 113/113/113
f 112/112/112 113/113/113 109/109/109
f 116/116/116 115/115/115 114/114/114
f 117/117/117 116/116/116 114/114/114
f 116/116/116 118/118/118 115/115/115
f 117/117/117 119/119/119 116/116/116
f 116/116/116 120/120/120 118/118/118
f 120/120/120 121/121/121 118/118/118
f 120/120/120 122/122/122 121/121/121
f 123/123/123 116/116/116 119/119/119
f 123/123/123 120/120/120 116/116/116
f 120/120/120 123/123/123 122/122/122
f 124/124/124 123/123/123 119/119/119
f 125/125/125 122/122/122 123/123/123
f 124/124/124 126/126/126 123/123/123
f 126/126/126 125/125/125 123/123/123
